<svg t="1745926417572" class="icon" viewBox="0 0 1024 1024" version="1.1" xmlns="http://www.w3.org/2000/svg" p-id="8078"><path d="M942.32 223.58q0 14.68-9.78 24.47L233.36 947.21Q223.58 957 208.9 957t-24.47-9.79L76.78 839.56Q67 829.78 67 815.09t9.78-24.47L776 91.46q9.78-9.78 24.47-9.78t24.47 9.78l107.61 107.66q9.77 9.78 9.77 24.46zM207.81 120.27l53.29 16.31-53.29 16.3-16.3 53.29-16.31-53.29-53.29-16.3 53.29-16.31L191.51 67z m190.29 88.08L504.67 241 398.1 273.6l-32.62 106.56-32.63-106.56L226.3 241l106.55-32.63 32.63-106.56z m157.67-88.08l53.28 16.31-53.28 16.3-16.3 53.29-16.31-53.29-53.28-16.3 53.28-16.31L539.47 67z m143.53 262.6l159.3-159.29-58.18-58.18-159.3 159.3z m204.43 85.36L957 484.54l-53.27 16.3-16.31 53.28-16.31-53.28-53.27-16.3 53.27-16.31L887.42 415z" p-id="8079"></path></svg>