<svg class="prefix__line-icon" xmlns="http://www.w3.org/2000/svg" width="23" height="23" viewBox="0 0 24 24" fill="none"><path d="M2 6a4 4 0 014-4h12a4 4 0 014 4v12a4 4 0 01-4 4H6a4 4 0 01-4-4V6z" stroke="#363636" stroke-width="2" stroke-linecap="round" stroke-linejoin="round"/><path d="M8.5 11a2.5 2.5 0 100-5 2.5 2.5 0 000 5zM14.526 12.621L6 22h12.133A3.867 3.867 0 0022 18.133V18c0-.466-.175-.645-.49-.99l-4.03-4.395a1.999 1.999 0 00-2.954.006v0z" stroke="#000" stroke-width="2" stroke-linecap="round" stroke-linejoin="round"/></svg>