<svg class="prefix__line-icon" xmlns="http://www.w3.org/2000/svg" width="22" height="22" fill="none"><path d="M1.214 7.571h0A6.357 6.357 0 0113.825 6.43h-.29A6.072 6.072 0 007.57 1.5h0a6.073 6.073 0 00-1.357 11.99v.293a6.358 6.358 0 01-5-6.212zm7.652 1.51a2.714 2.714 0 011.92-.795h7.285A2.714 2.714 0 0120.786 11v7.286A2.714 2.714 0 0118.07 21h-7.285a2.714 2.714 0 01-2.715-2.714V11c0-.72.286-1.41.795-1.92zm.202.202A2.429 2.429 0 008.358 11v7.286a2.429 2.429 0 002.428 2.428h7.285a2.429 2.429 0 002.429-2.428V11a2.429 2.429 0 00-2.429-2.429h-7.285c-.644 0-1.262.256-1.718.712z" fill="#000" stroke="#000" stroke-width="1.4"/></svg>