<svg class="prefix__line-icon" xmlns="http://www.w3.org/2000/svg" width="26" height="26" fill="none"><path d="M7.72 16.456l1.761-.508 10.603-10.73a.456.456 0 00-.003-.64l-.635-.642a.443.443 0 00-.632-.003L8.239 14.635l-.52 1.82.001.001zM20.703 2.664l.635.643c.876.887.884 2.318.016 3.196L10.428 17.561l-3.764 1.084a.902.902 0 01-1.11-.623.915.915 0 01-.002-.506l1.095-3.84L17.544 2.647a2.215 2.215 0 013.159.016v.001zM9.184 3.817c.496 0 .898.407.898.909a.903.903 0 01-.898.909H5.592c-.992 0-1.796.814-1.796 1.817v10.906c0 1.004.804 1.818 1.796 1.818h10.776c.992 0 1.797-.814 1.797-1.818v-3.635c0-.502.402-.909.898-.909s.898.407.898.91v3.634c0 2.008-1.609 3.636-3.593 3.636H5.592C3.608 21.994 2 20.366 2 18.358V7.452c0-2.007 1.608-3.635 3.592-3.635h3.592z" fill="#000"/></svg>