<svg width="56" height="56" viewBox="0 0 56 56" fill="none" xmlns="http://www.w3.org/2000/svg"><g clip-path="url(#prefix__clip0_761_2)"><path d="M11.402 5.402a29.399 29.399 0 00-6 6.2l3.2 2.4a26.52 26.52 0 015.2-5.4l-2.4-3.2zm-6.2 15.2l-3.8-1.2a25.02 25.02 0 00-1.4 8.6h4a22.96 22.96 0 011.2-7.4zM1.402 36.8a28.799 28.799 0 004 7.8l3.2-2.4a25.778 25.778 0 01-3.4-6.6l-3.8 1.2zm10.2 13.8a28.8 28.8 0 007.8 4l1.2-3.8a25.776 25.776 0 01-6.6-3.4l-2.4 3.2zm7.8-49.199l1.2 3.8a22.96 22.96 0 017.4-1.2v-4a25.02 25.02 0 00-8.6 1.4zM44.4 50.6a30.363 30.363 0 006.2-6.2L47.4 42a23.06 23.06 0 01-5.4 5.4l2.4 3.2zm6.4-15.2l3.8 1.2a30.94 30.94 0 001.4-8.599h-4a22.96 22.96 0 01-1.2 7.4zm3.6-16.198a28.797 28.797 0 00-4-7.8l-3.2 2.4a25.78 25.78 0 013.4 6.6l3.8-1.2zm-10.2-14a28.799 28.799 0 00-7.8-4l-1.2 3.8a25.779 25.779 0 016.6 3.4l2.4-3.2zM36.6 54.6l-1.2-3.8a22.96 22.96 0 01-7.399 1.2v4a42.842 42.842 0 008.6-1.4z" fill="#363636"/></g><defs><clipPath id="prefix__clip0_761_2"><path fill="#fff" d="M0 0h56v56H0z"/></clipPath></defs></svg>