<?xml version="1.0" standalone="no"?><!DOCTYPE svg PUBLIC "-//W3C//DTD SVG 1.1//EN" "http://www.w3.org/Graphics/SVG/1.1/DTD/svg11.dtd"><svg t="1747393322245" class="icon" viewBox="0 0 1024 1024" version="1.1" xmlns="http://www.w3.org/2000/svg" p-id="18771" width="64" height="64" xmlns:xlink="http://www.w3.org/1999/xlink"><path d="M216.534 539.62999999c0.578 1.289 1.64 2.336 2.313 3.62600001 2.38 4.191 4.23900001 8.705 7.738 12.372 0.653 0.644 1.33700001 1.087 2 1.692 0.873 0.92700001 1.195 2.136 2.058 2.982L680.657 994.012c11.967 11.526 27.404 17.289 42.823 17.289 16.167 0 32.334-6.327 44.424-18.9 23.66-24.544 22.92-63.594-1.602-87.25L360.438 514 767.904 128.53c24.778-23.454 25.84-62.505 2.437-87.249-23.45-24.74399999-62.488-25.872-87.256-2.418l-454.12 429.478c-20.026 18.939-23.744 47.713-12.431 71.288z" p-id="18772" fill="#707070"></path></svg>