<svg width="60" height="54" viewBox="0 0 70 68" fill="none" xmlns="http://www.w3.org/2000/svg"><path d="M35 1.015l8.71 9.143.24.252.345-.04 12.55-1.404.796 12.603.022.347.289.192 10.517 6.99-7.492 10.166-.206.28.098.333 3.563 12.116-12.274 2.972-.337.081-.14.319-5.057 11.57-11.313-5.612-.311-.154-.311.154-11.313 5.613-5.058-11.572-.139-.318-.337-.081-12.274-2.972 3.563-12.116.098-.333-.206-.28L1.53 29.098l10.517-6.99.29-.192.021-.347.796-12.603 12.55 1.405.345.039.24-.252L35 1.015z" stroke="#000" stroke-width="2.4"/></svg>