<?xml version="1.0" standalone="no"?><!DOCTYPE svg PUBLIC "-//W3C//DTD SVG 1.1//EN" "http://www.w3.org/Graphics/SVG/1.1/DTD/svg11.dtd"><svg t="1747393382964" class="icon" viewBox="0 0 1024 1024" version="1.1" xmlns="http://www.w3.org/2000/svg" p-id="19948" width="64" height="64" xmlns:xlink="http://www.w3.org/1999/xlink"><path d="M774.4 572.8c-12.8 0-25.6-6.4-38.4-16l-438.4-432c-22.4-22.4-22.4-54.4-1e-8-76.8 19.2-22.4 54.4-22.4 76.80000001 0L812.8 480c22.4 19.2 22.4 54.4 0 76.8-9.6 9.6-22.4 16-38.4 16z" fill="#707070" p-id="19949"></path><path d="M342.4 1008c-12.8 0-25.6-6.4-38.4-16-22.4-22.4-22.4-54.4 0-76.8L736 480c19.2-22.4 54.4-22.4 76.8 0 22.4 19.2 22.4 54.4 0 76.8L380.8 992c-9.6 12.8-25.6 16-38.4 16z" fill="#707070" p-id="19950"></path></svg>