<?xml version="1.0" standalone="no"?><!DOCTYPE svg PUBLIC "-//W3C//DTD SVG 1.1//EN" "http://www.w3.org/Graphics/SVG/1.1/DTD/svg11.dtd"><svg t="1748255546156" class="icon" viewBox="0 0 1028 1024" version="1.1" xmlns="http://www.w3.org/2000/svg" p-id="9863" width="32.125" height="32" xmlns:xlink="http://www.w3.org/1999/xlink"><path d="M783.872 304.64c4.608-4.608 7.168-10.752 7.168-16.896 0-6.144-2.56-12.288-7.168-16.896L539.648 26.112c-13.824-13.824-36.864-13.824-50.688 0L244.224 270.848c-9.216 9.216-9.216 24.576 0 33.792 9.216 9.216 24.576 9.216 33.792 0l236.032-236.032 236.032 236.032c9.728 9.728 24.576 9.728 33.792 0zM783.872 719.36c4.608 4.608 7.168 10.752 7.168 16.896 0 6.144-2.56 12.288-7.168 16.896l-244.736 244.736c-13.824 13.824-36.864 13.824-50.688 0l-244.736-244.736c-9.216-9.216-9.216-24.576 0-33.792 9.216-9.216 24.576-9.216 33.792 0l236.032 236.032 236.032-236.032c10.24-9.728 25.088-9.728 34.304 0z" fill="#0f172b" p-id="9864"></path></svg>