<?xml version="1.0" standalone="no"?><!DOCTYPE svg PUBLIC "-//W3C//DTD SVG 1.1//EN" "http://www.w3.org/Graphics/SVG/1.1/DTD/svg11.dtd"><svg t="1747191233146" class="icon" viewBox="0 0 1024 1024" version="1.1" xmlns="http://www.w3.org/2000/svg" p-id="4668" width="32" height="32" xmlns:xlink="http://www.w3.org/1999/xlink"><path d="M830.199179 761.527909l159.03831 191.93396a31.10367 31.10367 0 0 1-3.839959 43.519538l-23.295752 19.839789a30.207679 30.207679 0 0 1-42.879545-3.839959l-166.910226-201.40586-94.462997 160.894291a15.231838 15.231838 0 0 1-11.26388 7.423921 15.295837 15.295837 0 0 1-16.95982-13.439858L575.99388 511.99456l438.203344 169.726197a15.423836 15.423836 0 0 1-1.407985 29.311688l-182.59006 50.495464zM959.9898 511.99456h-63.99932V191.99796a63.99932 63.99932 0 0 0-63.99932-63.99932H191.99796a63.99932 63.99932 0 0 0-63.99932 63.99932v639.9932a63.99932 63.99932 0 0 0 63.99932 63.99932h319.9966v63.99932H191.99796a127.99864 127.99864 0 0 1-127.99864-127.99864V191.99796a127.99864 127.99864 0 0 1 127.99864-127.99864h639.9932a127.99864 127.99864 0 0 1 127.99864 127.99864v319.9966z" fill="#ffffff" p-id="4669"></path></svg>