<?xml version="1.0" standalone="no"?><!DOCTYPE svg PUBLIC "-//W3C//DTD SVG 1.1//EN" "http://www.w3.org/Graphics/SVG/1.1/DTD/svg11.dtd"><svg t="1747215284430" class="icon" viewBox="0 0 1068 1024" version="1.1" xmlns="http://www.w3.org/2000/svg" p-id="1889" xmlns:xlink="http://www.w3.org/1999/xlink" width="50.0625" height="48"><path d="M94.47513 44.521739a35.84 35.84 0 0 0-35.84 35.84v372.112696c0 19.812174 16.027826 35.884522 35.84 35.884522h372.157218c19.767652 0 35.84-16.027826 35.84-35.884522V81.074087a35.84 35.84 0 0 0-35.84-35.84L94.47513 44.521739z m336.272696 372.112696H130.359652V116.201739h300.388174v300.432696z m589.378783-149.860174a221.540174 221.540174 0 1 0-221.540174 221.584696 222.252522 222.252522 0 0 0 221.540174-221.584696z m-372.112696 0a149.860174 149.860174 0 1 1 149.860174 149.860174 150.572522 150.572522 0 0 1-149.860174-149.860174zM80.13913 978.053565h409.421913a35.84 35.84 0 0 0 30.809044-53.782261l-204.354783-354.927304a37.264696 37.264696 0 0 0-62.330434 0l-204.354783 354.927304a35.84 35.84 0 0 0 30.809043 53.782261z m204.354783-318.330435l143.404522 246.650435H141.089391l143.404522-246.650435z m615.913739-102.533565h-198.611478a35.84 35.84 0 0 0-30.853565 17.897739l-100.352 174.258087a35.84 35.84 0 0 0 0 35.84l100.352 174.213566c6.366609 11.041391 18.120348 17.853217 30.853565 17.94226h198.566956a35.84 35.84 0 0 0 30.853566-17.94226l100.396521-174.213566a35.84 35.84 0 0 0 0-35.84l-100.396521-174.258087a35.84 35.84 0 0 0-30.809044-17.897739z m-20.791652 348.427131H722.587826l-80.317217-137.661218 80.317217-138.373565h159.877565l80.317218 138.373565-83.166609 137.661218z" fill="#000000" p-id="1890"></path></svg>