<?xml version="1.0" standalone="no"?><!DOCTYPE svg PUBLIC "-//W3C//DTD SVG 1.1//EN" "http://www.w3.org/Graphics/SVG/1.1/DTD/svg11.dtd"><svg t="1747302557891" class="icon" viewBox="0 0 1024 1024" version="1.1" xmlns="http://www.w3.org/2000/svg" p-id="7305" width="64" height="64" xmlns:xlink="http://www.w3.org/1999/xlink"><path d="M878.0544 0H145.9456C65.472 0 0 65.472 0 145.9456v732.1088C0 958.528 65.472 1024 145.9456 1024h732.1088C958.528 1024 1024 958.528 1024 878.0544V145.9456C1024 65.472 958.528 0 878.0544 0z m63.2192 878.0544a63.296 63.296 0 0 1-63.232 63.2192H145.9584a63.296 63.296 0 0 1-63.2192-63.232V145.9584a63.296 63.296 0 0 1 63.232-63.2192h732.096a63.296 63.296 0 0 1 63.2192 63.232v732.096z" fill="#155dfc" p-id="7306"></path></svg>