<?xml version="1.0" standalone="no"?><!DOCTYPE svg PUBLIC "-//W3C//DTD SVG 1.1//EN" "http://www.w3.org/Graphics/SVG/1.1/DTD/svg11.dtd"><svg t="1747215331311" class="icon" viewBox="0 0 1024 1024" version="1.1" xmlns="http://www.w3.org/2000/svg" p-id="3001" xmlns:xlink="http://www.w3.org/1999/xlink" width="48" height="48"><path d="M797.495 527.047c36.735 0 71.417 8.783 102.071 24.353 2.146-17.85 3.259-36.018 3.259-54.447 0-249.309-202.103-451.412-451.412-451.412C202.105 45.541 0 247.644 0 496.953s202.105 451.412 451.412 451.412c65.394 0 127.536-13.912 183.639-38.927-39.164-40.595-63.263-95.822-63.263-156.685C571.789 628.099 672.84 527.047 797.495 527.047zM554.164 714.661c-41.086-1.265-72.689-1.897-101.133-1.897-30.341 0-63.21 0.632-107.456 1.897-5.057-3.793-5.057-18.33 0-22.124l28.443-3.161c28.445-3.16 32.237-8.848 32.237-67.632L406.255 342.993c0-15.17 0-18.33-15.17-18.33l-39.189 0c-46.143 0-59.416 25.284-78.379 71.425-7.587 3.793-19.596 2.528-23.388-5.688 13.273-43.615 16.434-82.804 20.858-107.456 2.529-1.896 5.689-3.161 8.849-3.161 3.161 0 6.321 0.633 8.849 2.529 3.161 10.745 5.057 13.273 53.095 13.273L576.92 295.585c41.718 0 51.199-0.632 56.888-13.906 2.528-1.262 4.424-1.896 8.217-1.896 3.792 0 8.217 2.529 9.481 4.425-6.321 21.49-10.745 72.689-9.481 108.72-3.16 5.688-20.228 6.953-23.388 1.896-10.745-40.454-19.594-70.161-67.002-70.161l-37.925 0c-15.17 0-17.066 1.896-17.066 18.33l0 278.752c0 58.784 3.792 63.842 32.237 67.632l25.282 3.161C558.59 696.331 558.59 710.868 554.164 714.661zM797.495 557.141c-108.033 0-195.612 87.578-195.612 195.612s87.578 195.612 195.612 195.612 195.612-87.578 195.612-195.612S905.528 557.141 797.495 557.141zM917.872 770.152 814.894 770.152 814.894 873.13l-34.798 0L780.096 770.152 677.118 770.152l0-34.798 102.978 0L780.096 632.377l34.798 0 0 102.978 102.978 0L917.872 770.152z" fill="#000000" p-id="3002"></path></svg>