<?xml version="1.0" standalone="no"?><!DOCTYPE svg PUBLIC "-//W3C//DTD SVG 1.1//EN" "http://www.w3.org/Graphics/SVG/1.1/DTD/svg11.dtd"><svg t="1748306045774" class="icon" viewBox="0 0 1024 1024" version="1.1" xmlns="http://www.w3.org/2000/svg" p-id="16250" width="48" height="48" xmlns:xlink="http://www.w3.org/1999/xlink"><path d="M512 64a445.44 445.44 0 0 1 316.8 131.2 445.696 445.696 0 0 1 96 142.4c23.36 55.296 35.2 113.92 35.2 174.4a445.44 445.44 0 0 1-131.2 316.8 445.696 445.696 0 0 1-142.4 96c-55.296 23.36-113.92 35.2-174.4 35.2a445.44 445.44 0 0 1-316.8-131.2 445.696 445.696 0 0 1-96-142.4A444.544 444.544 0 0 1 64 512a445.44 445.44 0 0 1 131.2-316.8 445.696 445.696 0 0 1 142.4-96A444.544 444.544 0 0 1 512 64z m0-64a512 512 0 0 0-512 512 512 512 0 0 0 512 512 512 512 0 0 0 512-512 512 512 0 0 0-512-512z m180.224 485.824l-245.12-220.16a38.592 38.592 0 0 0-52.864 1.664c-14.08 14.4-13.44 37.12 1.664 50.688l215.872 193.92-216 194.048a34.816 34.816 0 0 0-1.664 50.688c14.144 14.464 37.888 15.168 52.928 1.6l245.12-220.16a35.008 35.008 0 0 0 0.064-52.288z" fill="#0f172b" p-id="16251"></path></svg>