<?xml version="1.0" standalone="no"?><!DOCTYPE svg PUBLIC "-//W3C//DTD SVG 1.1//EN" "http://www.w3.org/Graphics/SVG/1.1/DTD/svg11.dtd"><svg t="1747280060324" class="icon" viewBox="0 0 1024 1024" version="1.1" xmlns="http://www.w3.org/2000/svg" p-id="3589" xmlns:xlink="http://www.w3.org/1999/xlink" width="48" height="48"><path d="M886.4 470.4L667.2 251.2l62.4-62.4c12.8-14.4 11.2-36.8-3.2-49.6-12.8-12.8-33.6-12.8-48 0l-62.4 62.4-43.2-43.2c-38.4-38.4-107.2-38.4-147.2 0L166.4 419.2C136 448 128 491.2 142.4 529.6l-4.8 8c-12.8 25.6-25.6 49.6-36.8 76.8-9.6 24-19.2 48-25.6 73.6-12.8 44.8-16 84.8-6.4 116.8 12.8 44.8 49.6 70.4 102.4 70.4 52.8 0 89.6-25.6 100.8-70.4 8-32 4.8-70.4-8-116.8-3.2-11.2-6.4-22.4-11.2-33.6l224 225.6c20.8 20.8 44.8 30.4 75.2 30.4 27.2 0 49.6-9.6 72-27.2l3.2-3.2 260.8-262.4c40-41.6 40-110.4-1.6-147.2z m-51.2 99.2l-3.2 1.6s-84.8 80-254.4 0c-161.6-76.8-294.4-3.2-305.6 3.2l-56-56c-12.8-12.8-12.8-35.2 1.6-49.6L475.2 208c11.2-12.8 38.4-12.8 49.6 0l41.6 41.6-100.8 102.4c-12.8 14.4-12.8 36.8 1.6 49.6 14.4 12.8 35.2 12.8 49.6 0l100.8-100.8 219.2 219.2c12.8 11.2 12.8 33.6-1.6 49.6z" fill="#000000" p-id="3590"></path></svg>