<svg width="24" height="20" viewBox="0 0 24 24" fill="none" xmlns="http://www.w3.org/2000/svg"><path d="M13.579 1.793l-7.003 8.18c-.738.862-.764 2.28-.058 3.168l7.2 9.06c.706.889 1.876.91 2.614.048l7.002-8.18c.738-.86.764-2.28.058-3.167l-7.2-9.061c-.706-.888-1.876-.91-2.613-.048z" fill="#666"/><path d="M9.18 9.583l-.058-.055-.07-.04c-.226-.13-.518-.205-.797-.251a6.358 6.358 0 00-1.013-.076c-.742 0-1.632.102-2.497.37-.862.266-1.737.709-2.403 1.415-.68.72-1.11 1.681-1.11 2.905 0 2.23.657 4.396 1.412 6.002.377.804.789 1.488 1.174 1.983.19.245.388.462.586.624.168.138.452.334.799.334.456 0 .719-.312.836-.559.107-.226.15-.493.17-.732.043-.494.014-1.168-.036-1.92-.024-.354-.053-.733-.083-1.132-.1-1.333-.218-2.886-.218-4.486 0-.419.1-.656.207-.799.108-.144.275-.257.527-.338.545-.174 1.28-.137 2.04-.084l.06.004c.328.023.68.047.963.033.15-.008.332-.028.504-.089a.936.936 0 00.55-.478.97.97 0 00.017-.742 2.179 2.179 0 00-.306-.545c-.257-.35-.67-.79-1.254-1.344z" fill="#fff" stroke="#666" stroke-width="1.254"/><path d="M14.522 3.472l7.539 9.743-14.996-1.307 7.457-8.436z" fill="#fff"/></svg>