<svg width="250" height="250" xmlns="http://www.w3.org/2000/svg"><path fill="#1B49AC" d="M126.25 7.66c-33.2 0-62.61 13.28-83.49 35.1-21.82 20.88-35.1 50.29-35.1 83.49 0 33.2 13.28 62.61 35.1 83.49 20.88 21.82 50.29 35.1 83.49 35.1 33.2 0 62.61-13.28 83.49-35.1 21.82-20.88 35.1-50.29 35.1-83.49 0-33.2-13.28-62.61-35.1-83.49-20.88-21.82-50.29-35.1-83.49-35.1zm0 1.9c1.9 0 3.79 0 6.64.95 1.9 0 3.8.95 5.69 1.9 1.9 0 3.8-.95 5.69-.95 1.9 0 3.8 0 6.65.95 1.89 0 3.79.95 5.69 1.89 1.9.95 3.79 1.9 4.74 2.85v.95c1.9-.95 4.74-.95 6.64 0 1.9 0 3.8.95 5.69 1.9 1.9 0 3.8 1.89 5.7 2.84 1.89.95 2.84 2.85 3.79 4.75h.95c1.9 0 3.8.94 4.74.94l5.7 2.85c1.89 1.9 3.79 2.85 4.74 4.74 1.9.95 2.85 2.85 3.79 4.75v.95c1.9 0 3.8.94 5.7 1.89.95.95 2.84 2.85 4.74 4.75.95.95 1.9 2.84 2.85 4.74.95 1.9 1.89 3.8 2.84 5.69.95.95 2.85 2.85 4.75 3.8.94 1.89 2.84 2.84 3.79 4.74.95 1.9 1.9 3.8 1.9 5.69.95 2.85.95 4.75.95 6.64 1.89 1.9 2.84 2.85 3.79 4.75 1.9 1.9 2.85 3.79 2.85 5.69.95 1.9 1.89 3.79 1.89 5.69 0 1.9 0 4.75-.94 6.64.94 1.9 1.89 3.8 2.84 5.7.95 1.89.95 3.79 1.9 5.69v6.64c0 1.9-.95 3.79-1.9 5.69.95 1.9.95 3.79 1.9 5.69v6.64c0 1.9-.95 3.8-1.9 5.69-.95 1.9-1.9 3.8-2.84 5.7.94 1.89.94 3.79.94 6.64 0 1.9-.94 3.79-1.89 5.69 0 1.9-.95 3.79-1.9 5.69-1.9 1.9-2.85 2.85-4.74 4.75 0 1.89 0 3.79-.95 5.69 0 1.9-.95 4.74-1.9 5.69-.95 1.9-2.85 3.8-3.79 5.69-1.9.95-2.85 2.85-4.75 3.8-.95 1.89-1.89 3.79-2.84 5.69 0 1.9-1.9 3.79-2.85 4.74-1.9 1.9-2.85 2.85-4.74 4.75-1.9.95-3.8 1.89-5.7 2.84-.94 1.9-1.89 2.85-3.79 4.75-.95 1.89-2.85 2.84-3.8 4.74-1.89.95-3.79 1.9-5.69 2.85-1.89 0-3.79.94-5.69.94h-.95c-.95 1.9-1.9 3.8-3.79 4.75-1.9.95-3.8 1.9-5.7 2.84-1.89.95-3.79 1.9-5.69 1.9-1.9.95-3.79.95-6.64 0-.95 1.9-2.84 2.85-4.74 3.8-1.9.94-3.8 1.89-5.69 1.89-1.9.95-4.75.95-6.65.95-1.89 0-3.79-.95-5.69-.95-1.89.95-3.79 1.9-5.69 1.9-1.9.95-3.79.95-6.64.95-1.9 0-3.79 0-5.69-.95-1.9 0-3.8-.95-5.69-1.9h-.95c-1.9.95-3.8.95-5.69.95-1.9 0-3.8 0-6.65-.95-1.89 0-3.79-.95-5.69-1.89-.95-.95-2.84-1.9-3.79-2.85h-7.59c-1.9-.95-3.8-1.9-5.69-2.85-1.9-.94-3.8-1.89-5.7-2.84-.95-.95-1.89-2.85-3.79-3.8-1.9-.95-3.8-.95-6.64-1.89-1.9-.95-2.85-1.9-4.75-2.85-1.89-1.9-3.79-2.85-4.74-4.74-.95-.95-1.9-2.85-2.85-4.75h-.94c-1.9-.95-3.8-1.89-5.7-2.84-1.89-.95-2.84-2.85-4.74-4.75-.95-.95-1.9-2.84-2.85-4.74-.95-1.9-.95-2.85-1.89-4.74l-.95-.95c-1.9-.95-2.85-1.9-4.75-3.8-.94-.95-2.84-2.84-3.79-4.74-.95-1.9-1.9-3.8-1.9-5.69-.95-1.9-.95-3.8-.95-5.7l-.95-.94c-.94-.95-1.89-2.85-3.79-4.75-.95-.95-1.9-3.79-1.9-5.69-.95-1.9-.95-3.79-.95-5.69-.94-1.9 0-3.8 0-5.69v-.95c-1.89-.95-2.84-2.85-2.84-4.75-.95-1.89-1.9-4.74-1.9-6.64v-5.69c.95-2.85.95-4.74 1.9-5.69v-.95c-.95-1.9-.95-3.79-1.9-5.69v-6.64c0-1.9.95-3.8 1.9-5.69 0-1.9.95-2.85 1.9-4.75v-.95-5.69c0-2.85.94-4.74 1.89-6.64 0-1.9.95-3.79 2.85-5.69.95-.95 1.9-2.85 2.84-3.8v-.95c0-1.89.95-3.79.95-5.69.95-1.9 1.9-3.79 2.85-5.69.95-1.9 2.85-3.8 3.79-4.74 1.9-1.9 2.85-2.85 4.75-3.8v-.95c0-1.89.95-3.79 1.89-5.69.95-1.9 2.85-3.79 3.8-4.74 1.9-1.9 2.85-2.85 4.74-3.8 1.9-.95 2.85-1.9 4.75-2.84l.95-.95c.94-1.9 1.89-3.8 2.84-4.75 1.9-1.89 2.85-2.84 4.75-3.79 1.89-1.9 3.79-2.85 5.69-2.85 1.89-.95 3.79-.95 5.69-.95l-.95-.94.95-.95c1.9-.95 2.85-2.85 4.74-3.8 1.9-.95 3.8-1.9 5.7-2.84 1.89-.95 3.79-1.9 5.69-1.9h4.74l.95-.95c1.9-.95 3.79-1.9 5.69-2.85 1.9-.94 3.8-1.89 5.69-1.89 1.9-.95 4.75-.95 6.65-.95 1.89.95 3.79.95 5.69 1.9v-.95c1.89-.95 3.79-1.9 5.69-1.9 2.85-.95 4.74-.95 6.64-.95zM92.1 19.05l-.95.95c-.95.94-2.85 2.84-4.74 3.79-.95.95-2.85 1.9-4.75 2.85-2.84.95-4.74 1.89-6.64 1.89h-4.74v.95c-.95 1.9-2.85 2.85-3.8 4.75-1.9 1.89-2.84 2.84-4.74 3.79-1.9 1.9-3.8 1.9-5.69 2.85-1.9.95-3.8.95-5.7.95v.94c0 1.9-.94 3.8-1.89 5.7-.95 1.89-1.9 3.79-3.8 4.74-1.9 1.9-2.84 2.85-4.74 4.74-1.9.95-2.85.95-4.75 1.9v.95c0 1.9-.94 3.79-.94 5.69-.95 1.9-1.9 3.8-2.85 5.69-.95 1.9-2.85 3.8-3.79 4.75-1.9.95-2.85 1.9-4.75 2.84v.95c.95 1.9.95 3.8.95 6.64-.95 1.9-.95 3.8-1.9 5.7-.95 1.89-1.89 3.79-2.84 5.69-.95.95-2.85 2.84-3.8 3.79.95 1.9 1.9 4.75 1.9 6.64v5.7c0 2.84-.95 4.74-.95 6.64-.95 1.89-1.9 3.79-2.84 4.74.94 1.9 1.89 3.79 2.84 5.69 0 1.9.95 3.8.95 5.69v6.64c0 1.9-.95 3.8-1.9 5.7 1.9.95 2.85 2.84 4.75 4.74.94 1.9 1.89 3.8 1.89 5.69.95 1.9.95 3.8.95 5.69.95 1.9 0 3.8 0 5.7 1.9 1.89 3.8 2.84 4.75 4.74 1.89.95 2.84 2.85 3.79 4.74l2.85 5.7v5.69h.94c1.9.95 3.8 1.9 5.7 2.84.95.95 2.84 2.85 4.74 3.8.95 1.9 1.9 3.79 2.85 5.69.95 1.9 1.89 3.8 1.89 4.75 2.85.94 4.75.94 6.65 1.89 1.89.95 3.79 1.9 4.74 2.85 1.9 1.9 3.79 2.85 4.74 4.74 1.9.95 2.85 2.85 2.85 4.75H75.97c1.9.94 3.79.94 5.69 1.89 1.9.95 3.8 1.9 5.69 3.8.95.95 2.85 1.9 3.8 3.79 1.9-.95 4.74-.95 6.64-.95 1.9 0 3.79 0 5.69.95 2.85 0 4.75.95 6.64 1.9.95.95 2.85 1.9 3.8 3.79l.95-.94c.94-.95 2.84-.95 5.69-1.9 1.9-.95 3.79-.95 5.69-.95 1.9 0 4.74 0 6.64.95 1.9 0 3.8.95 5.69 1.9.95-.95 2.85-1.9 4.75-2.85 1.89-.95 3.79-1.9 5.69-2.85h6.64c1.9 0 3.79 0 5.69.95.95-1.89 2.85-2.84 3.8-4.74 1.89-.95 3.79-1.9 5.69-2.85 1.9-.95 3.79-1.89 5.69-1.89h6.64c0-1.9 1.9-3.8 2.85-5.7.95-.94 2.84-2.84 4.74-3.79 1.9-.95 3.8-1.9 5.69-2.85 1.9-.95 3.8-.95 5.7-1.89 0-1.9.94-3.8 1.89-5.7.95-.95 1.9-2.84 3.8-4.74.95-1.9 2.84-2.85 4.74-3.8 1.9-1.89 3.8-2.84 5.69-2.84v-5.69c.95-2.85 1.9-4.75 2.85-6.64.95-.95 1.9-2.85 3.79-4.75 1.9-.95 2.85-2.84 4.75-3.79 0-1.9-.95-3.8 0-5.7 0-1.89 0-3.79.95-6.64.95-1.89 1.89-3.79 2.84-4.74.95-1.9 1.9-3.79 3.8-4.74-.95-1.9-1.9-3.8-1.9-5.7v-6.64c0-1.89.95-4.74.95-6.64.95-1.89 1.9-2.84 3.79-4.74-1.89-1.9-2.84-3.79-2.84-5.69-.95-1.9-1.9-3.8-1.9-5.69v-6.64c0-1.9.95-3.8.95-5.7h.95c-1.9-1.89-2.85-2.84-3.8-4.74-.95-.95-1.89-2.85-2.84-5.69-.95-1.9-.95-3.8-1.9-5.69 0-1.9 0-3.8.95-6.65-1.9-.94-3.8-1.89-4.75-2.84-1.89-1.9-2.84-3.8-3.79-5.69l-2.85-5.7c0-1.89-.94-3.79-.94-5.69-1.9-.95-3.8-1.9-4.75-2.84-1.9-.95-3.79-1.9-4.74-3.8-1.9-1.9-2.85-3.79-3.8-4.74-.95-1.9-1.89-4.75-1.89-6.64-1.9 0-3.8 0-5.7-.95-1.89-.95-3.79-1.9-5.69-2.85-1.9-.95-3.79-2.85-4.74-3.79-1.9-1.9-2.85-3.8-3.8-5.7h-5.69c-1.9-.94-3.79-.94-5.69-1.89-1.9-.95-3.8-1.9-5.69-2.85-1.9-1.9-2.85-2.85-3.8-4.74-1.9.95-3.79.95-5.69.95h-6.64c-1.9-.95-3.8-1.9-5.69-2.85l-5.7-2.85c-.94.95-2.84 1.9-4.74 1.9-2.85.95-4.74.95-6.64.95-1.9 0-3.79 0-6.64-.95-1.9 0-3.8-.95-4.74-1.9h-.95c-.95 1.9-2.85 2.85-4.75 3.8-1.89.95-3.79.95-5.69 1.9h-6.64c-1.9 0-3.79-.95-4.74-.95zm16.13-5.69h-6.65c-1.89.94-3.79.94-5.69 1.89-.95.95-1.9 1.9-2.84 2.85h3.79c1.9.95 3.8 0 5.69 0 1.9 0 3.8-.95 5.7-1.9 1.89 0 2.84-.95 3.79-1.9-.95-.94-2.85-.94-3.79-.94zM84.51 20c-1.9 0-3.8 0-5.69.94-1.9.95-3.8 1.9-4.75 2.85-.95.95-2.84 1.9-3.79 2.85h4.74c1.9 0 3.8-.95 5.69-.95 1.9-.95 3.8-1.9 4.75-2.85 1.89-.95 2.84-1.9 3.79-2.84h-4.74zM63.64 30.43l-5.7 2.85c-1.89.95-2.84 1.89-3.79 3.79-1.9.95-1.9 1.9-2.85 3.8.95-.95 2.85-.95 3.8-.95 1.9-.95 3.79-1.9 5.69-2.85 1.9-.95 2.85-2.84 4.74-3.79.95-.95 1.9-1.9 1.9-3.8-.95 0-2.85.95-3.79.95zM44.66 45.61c-1.9.95-2.84 1.9-4.74 3.8-.95 1.89-1.9 2.84-2.85 4.74-.95.95-1.9 2.85-1.9 3.79.95 0 2.85-.94 3.8-1.89 1.9-.95 2.85-1.9 4.74-3.8.95-.95 1.9-2.84 2.85-4.74.95-.95 1.9-2.85 1.9-3.8-.95.95-2.85.95-3.8 1.9zM29.48 64.58c-.95.95-1.89 2.85-3.79 3.8-.95 1.9-1.9 3.79-1.9 5.69-.95 1.9-.95 2.85-.95 4.75l2.85-2.85c1.9-1.9 2.84-2.85 3.79-4.74 1.9-1.9 1.9-3.8 2.85-5.7.95-.95.95-2.84.95-3.79-.95.95-1.9 1.9-3.8 2.84zM19.05 85.46c-.95 1.89-1.9 3.79-2.85 5.69-.95 1.9-.95 3.79-.95 5.69-.95.95-.95 2.85 0 3.8l2.85-2.85c.95-1.9 1.9-3.8 2.84-5.69 0-1.9.95-3.8.95-5.69v-3.8c-.95.95-1.89 1.9-2.84 2.85zm-6.64 23.71c0 .95-.95 2.85-.95 5.7v5.69c0 .95 0 2.84.95 3.79.95-.95.95-1.89 1.89-3.79.95-1.9.95-3.8 1.9-5.69 0-1.9 0-3.8-.95-5.7 0-1.89 0-2.84-.95-3.79 0 .95-.94 1.9-1.89 3.79zm-.95 23.72v5.69c0 1.9.95 3.8.95 5.69.95 1.9.95 2.85 1.89 3.8.95-.95.95-2.85.95-3.8.95-1.89.95-3.79.95-5.69-.95-2.84-.95-4.74-1.9-5.69 0-1.9-.94-2.85-1.89-4.74 0 1.89-.95 2.84-.95 4.74zm3.79 23.72c0 1.9.95 3.79.95 5.69.95 1.9 1.9 3.79 2.85 4.74.95 1.9 1.89 2.85 2.84 3.8v-3.8c0-1.89-.95-4.74-.95-6.64-.94-1.89-1.89-3.79-2.84-4.74-.95-1.9-1.9-2.85-2.85-3.8v4.75zm8.54 21.82c.95 1.9 1.9 3.79 2.85 5.69.95 1.9 1.89 3.8 2.84 4.74.95.95 1.9 1.9 3.8 2.85 0-.95-.95-2.85-.95-4.74 0-.95-.95-2.85-1.9-4.75-.95-1.89-1.9-3.79-3.79-4.74l-2.85-2.85v3.8zm13.28 19.92c.95 1.9 1.9 3.8 3.8 4.74.95 1.9 2.84 3.8 3.79 4.75.95.95 2.85.95 3.8 1.9 0-.95-.95-2.85-.95-3.8-.95-1.9-1.9-3.79-3.8-5.69-.95-.95-2.84-2.85-3.79-3.8-.95-.95-2.85-1.89-3.8-1.89 0 .94.95 2.84.95 3.79zm17.08 17.08c.95 1.9 2.85 2.84 4.74 3.79.95 1.9 2.85 2.85 4.75 2.85 1.89.95 2.84.95 3.79 1.9 0-1.9-.95-2.85-1.9-3.8-.95-1.9-2.84-2.84-3.79-3.79-1.9-1.9-3.8-2.85-5.69-2.85-.95-.95-2.85-.95-3.8-1.9 0 1.9.95 2.85 1.9 3.8zm19.92 13.28c1.9.95 3.8 1.9 5.69 2.85 1.9.94 3.8 1.89 5.7 1.89h3.79c-.95-.95-1.9-1.89-2.84-2.84-1.9-.95-2.85-1.9-4.75-2.85-1.9-.95-3.79-1.9-5.69-1.9-1.9-.95-2.85-.95-4.74-.95.94 1.9 1.89 2.85 2.84 3.8zm22.77 8.54c1.9.95 3.8.95 5.69 1.89 1.9 0 3.8.95 5.7.95 1.89-.95 2.84-.95 4.74-.95-1.9-.94-2.85-1.89-3.8-2.84-1.89-.95-3.79-.95-5.69-1.9-1.9 0-3.79-.95-5.69-.95-1.9 0-2.85.95-4.74.95.94.95 2.84 1.9 3.79 2.85zm23.72 3.79h11.38c1.9-.95 2.85-.95 4.75-1.9-1.9-.94-2.85-.94-4.75-1.89h-11.38c-.95.95-2.85.95-3.8 1.89.95.95 2.85.95 3.8 1.9zm23.71-1.9h5.7c2.84-.94 4.74-.94 5.69-1.89 1.9-.95 2.85-1.9 3.79-2.85h-3.79c-1.9-.95-3.8 0-6.64 0-1.9.95-3.8.95-4.75 1.9-1.89.95-2.84 1.9-3.79 2.84h3.79zm23.72-5.69c1.9-.95 3.8-.95 5.69-1.89 1.9-.95 2.85-1.9 4.75-2.85.95-.95 1.9-1.9 2.84-3.8-.94 0-2.84.95-3.79.95-1.9 0-3.8.95-5.69 1.9-1.9 0-3.8.95-5.7 2.85-.94.95-1.89 1.89-2.84 2.84h4.74zm20.87-11.38l5.7-2.85c.94-.95 2.84-1.89 3.79-3.79.95-.95 1.9-1.9 2.85-3.8-1.9 0-2.85.95-4.75.95-1.89.95-2.84 1.9-4.74 2.85-1.9 1.9-2.85 2.84-4.74 3.79-.95 1.9-1.9 2.85-1.9 3.8.95 0 2.85 0 3.79-.95zm18.98-15.18c1.9-.95 2.84-1.9 4.74-3.8.95-.94 1.9-2.84 2.85-4.74.95-.95.95-2.85 1.9-3.79-1.9 0-2.85.94-3.8 1.89-1.9.95-3.79 1.9-4.74 3.8-.95 1.9-2.85 2.84-2.85 4.74-.95 1.9-1.9 2.85-1.9 3.8.95 0 2.85-.95 3.8-1.9zm15.18-18.03c.95-1.89 1.89-2.84 3.79-4.74.95-1.9.95-3.79 1.9-5.69 0-1.9.95-2.85.95-4.75-1.9.95-2.85 1.9-3.8 2.85-.95 1.9-2.84 2.85-3.79 4.74-.95 1.9-.95 3.8-1.9 5.7 0 .95-.95 2.84-.95 3.79.95 0 2.85-.95 3.8-1.9zm10.43-21.82c.95-1.89 1.9-2.84 2.85-4.74.95-2.85.95-4.74.95-6.64v-3.8l-2.85 2.85c-.95 1.9-1.9 3.8-2.84 5.69 0 1.9-.95 3.8-.95 5.69v4.75c.95-.95 1.89-2.85 2.84-3.8zm6.64-22.77c0-1.89.95-3.79.95-5.69v-6.64c0-.95 0-2.84-.95-3.79-.95.95-.95 2.84-1.89 3.79-.95 1.9-.95 3.8-1.9 5.69v5.7c.95 1.89.95 2.84 1.9 4.74 0-1.9.94-2.85 1.89-3.8zm.95-24.66v-5.69c0-1.9-.95-3.8-.95-5.69-.95-.95-1.89-2.85-2.84-3.8 0 1.9 0 2.85-.95 4.74v5.7c.95 1.89.95 3.79 1.9 5.69.94.95.94 2.84 1.89 3.79.95-1.89.95-2.84.95-4.74zm-3.79-23.72c0-1.9 0-3.79-.95-5.69-.95-1.9-1.9-3.79-2.85-4.74-.95-1.9-1.89-2.85-2.84-3.8v4.75c0 1.89.95 3.79.95 5.69.94 1.89 1.89 3.79 2.84 4.74.95 1.9 1.9 2.85 2.85 3.8v-4.75zm-8.54-21.82c-.95-1.9-1.9-3.79-2.85-5.69-.95-1.9-1.89-2.85-2.84-4.74-1.9-.95-2.85-1.9-3.8-2.85 0 1.9 0 2.85.95 4.74 0 1.9.95 3.8 1.9 5.7.95.94 2.84 2.84 3.79 3.79.95 1.9 1.9 2.85 3.8 2.85 0-.95-.95-2.85-.95-3.8zm-13.28-19.92c-.95-1.9-1.9-3.8-3.8-4.74-.95-1.9-2.84-2.85-3.79-3.8-1.9-.95-2.85-1.9-3.8-1.9 0 .95.95 1.9.95 3.8.95 1.9 1.9 2.84 3.8 4.74.95.95 2.84 2.85 4.74 3.8.95.95 1.9.95 3.8 1.89-.95-.94-.95-2.84-1.9-3.79zm-17.08-17.08c-.95-1.9-2.85-2.84-4.74-3.79-.95-.95-2.85-1.9-4.75-2.85-1.89-.95-2.84-.95-4.74-.95.95.95 1.9 1.9 2.85 3.8.95.95 2.84 1.89 4.74 3.79 1.9.95 2.85 1.9 4.74 1.9 1.9.95 2.85.95 4.75 1.9-.95-1.9-1.9-2.85-2.85-3.8zm-19.92-13.28c-1.9-.95-3.8-1.9-5.69-2.85-1.9-.94-3.8-.94-5.7-1.89h-3.79c.95.95 1.9 1.89 2.84 2.84 1.9 1.9 3.8 2.85 5.7 2.85 1.89.95 3.79 1.9 5.69 1.9h3.79c-.94-.95-1.89-1.9-2.84-2.85zm-22.77-8.54c-1.9-.95-3.8-.95-5.69-1.89h-5.7c-.94 0-2.84 0-3.79.94.95 0 1.9.95 2.85 1.9 1.89.95 3.79 1.9 5.69 1.9 1.9 0 3.79.95 5.69 0h4.74c-.94-.95-1.89-1.9-3.79-2.85zm-23.72-3.79h-11.38c-1.9.95-2.85.95-3.8 1.9.95.94 1.9.94 3.8 1.89h11.38c1.9-.95 2.85-.95 3.8-1.89-.95-.95-1.9-.95-3.8-1.9zm70.21 38.89c19.92 18.98 31.3 46.49 31.3 75.9 0 29.41-11.38 56.92-31.3 75.9-18.98 19.92-46.49 31.3-75.9 31.3-29.41 0-56.92-11.38-75.9-31.3-19.92-18.98-31.3-46.49-31.3-75.9 0-29.41 11.38-56.92 31.3-75.9 18.98-19.92 46.49-31.3 75.9-31.3 29.41 0 56.92 11.38 75.9 31.3z"/></svg>