<svg width="250" height="250" xmlns="http://www.w3.org/2000/svg"><path fill="#2f69c2" d="M199.581 25.944c3.043 1.7 11.756 3.026 15.224 10.353 3.102 6.545 1.76 15.436-1.156 21.837-5.228 11.475-14.943 19.983-25.985 25.933-18.827 10.149-44.378 13.932-51.059 26.478-3.825 7.173-.383 16.421 4.148 19.728-1.445-5.228-6.554-13.617 3.026-21.301 10.37-8.304 40.417-10.659 64.175-24.463 6.137-3.562 11.806-8.874 15.827-13.337 10.693-11.866 12.707-31.016-.4-41.675-4.063-3.307-17.68-7.965-23.8-3.553zm-86.47 104.38c5.933-3.885 12.843-21.003-9.299-30.813C83.352 90.452 52.676 85.3 40.257 58.1c-4.233-9.291-4.845-22.372 5.032-28.382 2.67-1.623 7.395-2.61 9.316-3.774-8.007-4.836-33.473-.187-33.116 23.324.23 15.785 11.781 27.31 24.09 35.003 12.018 7.506 27.803 11.747 42.763 16.133 9.214 2.703 25.364 5.848 27.217 17.119 1.02 6.171-1.012 8.27-2.448 12.801zm11.492-31.238c-5.423-.161-6.095-4.453-5.202-9.774-1.658.858-.587.059-1.581 1.258-1.173 1.402-1.768 4.445-1.573 6.434.791 7.65 9.291 8.56 7.77 23.273-.34-9.962-7.158-14.127-8.73-16.465 5.508 7.574 7.718 19.602 2.303 29.258 4.803 2.907 6.35 1.75 9.384 10.489 1.99-6.715 3.791-7.625 9.367-10.421-5.049-9.512-3.349-21.641 2.27-29.308-2.261 3.204-7.676 5.431-8.764 16.481-1.487-14.705 7.557-16.005 7.88-23.834.144-3.46-1.454-6.621-3.409-7.65 1.148 5.168.782 10.115-5.04 10.302 6.978-3.595 2.482-18.836-4.114-15.75-1.08.51-1.08.824-1.692 1.785-1.759 2.762-3.689 7.522-1.963 10.642.552.994 2.397 2.924 3.094 3.28zm-13.328 14.74C95.108 98.789 64.38 103.813 38.651 87.144c-5.321-3.451-14.178-11.738-16.048-17.17-3.842 53.95 51.884 24.387 88.672 43.852zm32.631-.893c30.413-10.523 27.83-5.414 57.962-7.905 9.137-.756 18.742-4.241 23.332-9.086 4.795-5.066 7.379-16.44 6.044-25.917-2.278 6.103-10.302 13.15-15.266 16.686-19.992 14.229-50.09 13.09-67.252 22.542l-4.82 3.68zm-16.6 110.925c2.117-9.979 12.546-18.76 9.784-30.515-1.114-4.717-4.234-9.656-6.087-14.331-2.354-5.916-2.609-10.149-4.097-16.558-3.043 21.004-8.228 21.981-10.174 31.425-1.845 8.959 3.46 15.147 7.038 22.66 1.224 2.576 2.108 5.823 3.536 7.319zm30.795-13.626c-1.326-13.871-1.36-14.007-8.296-22.04-8.355-9.681-22.261-22.448-20.595-40.868 1.062-11.832 16.022-11.067 12.843-1.683-2.524.859-6.4 1.36-6.885-1.649-.331 6.792 7.693 7.54 10.532 3.026 3.494-5.559-.892-11.543-6.792-11.424-15.742.332-12.537 26.69-5.346 41.404 2.006 4.097 4.964 9.095 6.188 13.676 3.672 13.728-1.054 22.576 18.351 19.559zm-39.227-65.925c-1.802 2.796-4.692 2.703-7.378.773-1.428-9.46 12.801-9.265 13.303 3.349.985 24.76-23.996 38.947-26.912 48.748-1.079 3.646-1.844 9.299-1.972 12.979 18.488 4.208 15.003-6.808 18.131-18.972 2.507-9.758 8.797-16.192 11.194-27.846 7.608-36.95-23.408-30.685-17.433-17.144 2.176 4.93 10.123 5.635 11.067-1.887zm24.735-26.733c7.233-2.065 11.356-4.828 20.63-3.884 21.496 2.193 42.78 18.428 54.467-7.149-24.199 8.721-40.205-.467-60.146 3.859-5.848 1.267-11.968 3.587-14.951 7.174zm-32.785.357c-11.424-13.047-41.004-6.995-57.069-7.48-8.491-.255-11.619-1.827-18.419-3.85 5.576 14.62 16.94 16.218 34.425 11.713 22.508-5.789 21.19-7.098 41.063-.383zm-59.296 7.106c1.675 3.392 6.953 7.778 13.32 7.693 5.074-.077 11.296-4.012 14.9-6.171 13.813-8.262 14.467-8.798 31.816-4.31-1.505-1.844-3.315-2.635-5.823-3.697-2.303-.961-4.751-1.53-7.395-1.862-14.33-1.802-22.49 8.874-46.818 8.347zm90.262-2.431c15.215-5.712 19.932-3.612 31.994 3.723 3.638 2.202 9.809 6.095 14.662 6.367 6.562.374 12.342-4.148 13.966-7.684-13.957.459-20-2.389-31.646-6.18-10.463-3.408-22.389-2.975-28.976 3.774zm22.78 60.758c-.655-3.255-4.352-7.242-6.707-8.491-3.51-1.87-8.21-1.998-11.925-3.222-7.149-2.363-12.028-8.619-14.399-16.184.127 7.446 8.423 17.995 11.704 21.803 2.134 2.473 5.882 5.567 9.214 7.692 5.313 3.383 8.22 1.964 12.113-1.598zm-75.217 0c3.57 3.111 6.494 5.007 11.705 1.828 3.349-2.04 7.123-5.126 9.35-7.557 3.06-3.332 11.951-14.951 11.934-22.1-6.06 18.845-19.474 15.997-25.917 19.168-2.779 1.377-6.256 5.091-7.072 8.661zM193.036 83.71c7.412-2.32 21.633-13.523 26.529-20.808 3.009-4.48 6.112-10.914 5.074-18.3-.918-6.58-5.363-12.036-10.633-13.634 1.3 2.32 2.924 3.051 4.446 6.358 6.213 13.549-3.715 28.458-13.337 36.788l-12.079 9.596zm-132.209.009c-3.859-3.919-35.436-22.9-25.508-45.9 1.861-4.327 2.95-3.885 4.59-6.843-10.872 3.179-14.782 18.343-5.568 31.867 2.992 4.394 7.336 8.542 11.535 11.806 3.196 2.49 10.565 7.48 14.951 9.07zm66.368 132.523c1.054-6.052 4.981-11.16 4.505-17.603-.399-5.381-3.663-11.229-4.598-17.808-.629 1.607-4.769 16.218-4.888 17.825-.289 4.02 3.315 14.739 4.981 17.586zm-57.443-80.333c2.61 2.099 7.293 3.578 11.781 2.354 4.25-1.156 5.959-4.08 8.092-6.528 5.508-6.315 11.526-7.344 21.964-6.205-7.225-4.53-16.03-4.241-22.933.604-7.301 5.117-8.372 6.953-18.904 9.775zm72.607-10.421c12.402-1.012 14.722-.816 21.905 6.264 2.21 2.176 3.8 5.296 8.083 6.503 4.412 1.24 9.189-.196 11.807-2.278-4.446-1.598-6.265-1.411-10.353-3.86-3.17-1.895-5.517-3.952-8.568-6.009-7.293-4.921-15.054-5.032-22.874-.62zm12.912 81.65c.238-4.725-.833-10.276-3.264-12.987-2.227-2.474-5.95-5.942-8.764-7.608 3.409 9.92-.688 19.117 12.028 20.596zm-56.678.052c13.03-2.227 8.542-9.682 12.087-20.681-2.873 1.768-5.933 4.556-8.509 7.353-2.711 2.94-3.527 8.287-3.578 13.328zm22.958-122.443c1.607-2.712 1.573-4.803 5.151-4.904 1.65-.043 2.227-.23 3.383.934.247.247.85 1.276 1.156 1.794l1.224 1.912c-.399-5.049-3.867-10.378-5.508-15.759-2.133 6.24-5.49 11.892-5.406 16.023zM92.056 182.42c5.313 3.171 9.435-1.929 13.464-6.519-6.213 1.037-8.874-.162-12.112 3.392-.578.629-1.607 1.58-1.352 3.128zm69.811.026c.357-2.117-2.754-4.828-4.48-5.33-1.606-.476-7.063-.943-8.984-1.19 3.587 3.809 7.922 9.835 13.464 6.52z"/></svg>