<svg width="250" height="250" xmlns="http://www.w3.org/2000/svg"><path fill="#1B49AC" d="M145.19 119.36c-.29 1.65-.6 3.36-.91 5.13 1.7-.46 3.26-.88 4.69-1.27l-3.77-3.86zm-1.5-1.27c.04-.25-.13-.62-.32-.82-1.83-1.88-3.68-3.73-5.69-5.76-.14 2.35-.27 4.46-.38 6.57-.01.19.05.44.18.57 1.67 1.72 3.35 3.42 5.2 5.3.37-2.13.72-4 1.01-5.87zm.96-8.91c.01-.18-.13-.4-.26-.54-2.18-2.22-4.37-4.42-6.73-6.8 0 2.46-.01 4.63.01 6.79 0 .29.1.65.29.85 1.95 2 3.92 3.98 6.12 6.19.21-2.36.4-4.42.56-6.49zm8.63 8.44c-.42 1.62-.81 3.15-1.23 4.79 1.67-.45 3.17-.86 4.58-1.24-1.11-1.18-2.19-2.33-3.34-3.56zm9.1-17.34c.3-1.81-.18-3.23-1.69-4.32-.4-.29-.7-.7-1.05-1.05-1.54-1.58-3.07-3.17-4.79-4.94.17 2.73.31 5.1.48 7.47.02.26.12.57.29.75 2.05 2.1 4.11 4.17 6.34 6.41.15-1.6.2-2.98.43-4.32zm-.78 6.69c.04-.2-.08-.49-.23-.64-1.93-1.97-3.88-3.93-5.96-6.01-.14 2.29-.27 4.35-.38 6.4-.01.23.03.53.17.68 1.68 1.75 3.39 3.48 5.29 5.4.42-2.15.78-3.98 1.11-5.83zm.51-18.22c-.05-.88-.44-1.49-1.06-2.08-1.46-1.4-2.88-2.85-4.3-4.3-1.25-1.27-2.48-2.56-3.91-4.04.53 2.97.99 5.58 1.47 8.19.07.4.2.87.46 1.14 2.49 2.56 5.02 5.08 7.77 7.84-.16-2.46-.33-4.61-.44-6.76zm-3.09-13.72c-2.83-2.84-5.68-5.65-8.67-8.62.6 2.9 1.14 5.62 1.73 8.32.1.45.35.92.67 1.25 2.11 2.17 4.25 4.3 6.39 6.43.75.75 1.51 1.48 2.26 2.23-.47-2.96-1.15-5.78-1.85-8.59-.09-.36-.27-.75-.53-1.01zm-4.09-13.76c-2.12-2.2-4.3-4.34-6.47-6.5-.15-.15-.32-.26-.6-.48.36 1.73.85 3.28.98 4.85.26 3 1.59 5.28 3.86 7.24 1.95 1.68 3.64 3.66 5.44 5.51l.24-.18c-.76-2.83-1.48-5.68-2.31-8.49-.21-.71-.63-1.42-1.15-1.95zm-1.78 47.22c.04-.38-.18-.89-.45-1.18-1.24-1.32-2.54-2.58-3.82-3.86-.75-.75-1.52-1.49-2.48-2.44 0 2.39-.01 4.47.01 6.56 0 .32.07.74.27.95 1.79 1.86 3.63 3.68 5.65 5.72.31-2.11.61-3.92.81-5.75zm-1.32 7.9c.04-.16-.08-.41-.21-.54-1.72-1.77-3.44-3.52-5.29-5.4-.28 2.26-.53 4.29-.76 6.31-.02.17.1.41.23.55 1.49 1.51 2.99 3.01 4.64 4.66.49-1.96.95-3.77 1.38-5.58zm6.37 3.69c.58-1.78 1.12-3.38 1.61-4.99.07-.23.05-.62-.1-.77-1.57-1.67-3.18-3.3-4.9-5.08-.36 2.11-.68 3.92-.95 5.74-.05.32.07.78.28 1.01 1.27 1.34 2.59 2.63 4.05 4.1zm-21.12.93c-.16 1.72-.33 3.56-.52 5.54 1.72-.46 3.31-.89 4.91-1.32-1.52-1.46-2.97-2.86-4.39-4.22zm27.87 67.94c-.84-.06-1.68-.02-2.6-.02.19.75.33 1.37.49 1.98.15.54.32 1.08.48 1.65h3.13c-.33-1.1-.61-2.12-.95-3.12-.07-.21-.36-.47-.57-.49zm-9.61 0c-.83-.05-1.67-.02-2.58-.02.26 1.3.49 2.44.72 3.62h3.19c-.25-1.1-.46-2.14-.74-3.16-.05-.19-.37-.43-.58-.44zm-11.69 3.6h3.19c-.18-1.21-.35-2.35-.54-3.56h-3.1c.16 1.23.3 2.37.45 3.56zm4.89 0h3.22l-.72-3.59h-3.05c.19 1.27.36 2.41.54 3.59zm10.34-6.42c0-2.35-.07-4.7.03-7.04.05-1.16-.27-1.82-1.34-2.29-2.95-1.3-4.9-3.51-5.5-6.72-.23-1.24-.19-2.54-.23-3.82-.18-6.76.09-13.46 1.45-20.13 1.58-7.7 2.76-15.49 4.14-23.41-.42.1-.69.15-.96.22-6.37 1.71-12.74 3.44-19.12 5.11-.76.2-1.02.45-1.02 1.25.03 7.18.02 14.36.02 21.55v3.81c.15-.07.19-.13.2-.19.7-3.48 1.39-6.95 2.08-10.43.12-.59.38-1.08 1.05-.91.6.16.71.63.57 1.27-.86 4.17-1.63 8.35-2.53 12.51-.91 4.24-1.58 8.48-1.41 12.86.16 4.15.03 8.32.02 12.48v4.92h5.33v-8.8c0-1.71-.04-3.42.04-5.12.02-.34.54-.65.83-.98.27.31.59.6.79.96.11.19.02.49.02.74v13.21h5.37v-9.65c0-.63.08-1.2.86-1.17.68.03.81.55.81 1.15-.01 2.31 0 4.62 0 6.93v2.74h3.43v-1.13-5.65c0-.61.18-1.19.82-1.08.33.06.58.7.83 1.1.06.1 0 .28 0 .42v6.38h3.43v-1.08zm20.37 2.82c-.82-.07-1.65-.03-2.52-.03q1.28 3.83 4.24 3.65l.21-.06c-.45-1.06-.84-2.04-1.29-3-.11-.24-.41-.54-.64-.56zm-4.82 0c-.8-.05-1.6-.02-2.42-.02.76 3.65 1 3.86 4.08 3.63.03 0 .07-.02.18-.06-.4-1.05-.78-2.11-1.22-3.14-.08-.19-.39-.39-.61-.41zm-20.78-30.66c-.17 3.42-.28 6.76-.13 10.09.12 2.72 1.2 5.02 3.78 6.36.79.41 1.52.93 2.31 1.33.69.34.95.82.94 1.6-.04 2.84-.02 5.69-.02 8.53v1.04h9.84c-5.63-9.75-11.17-19.35-16.71-28.95zm-.68-69.47c-.05-.41-.32-.86-.62-1.17-1.88-1.93-3.81-3.83-5.71-5.75-.66-.67-1.3-1.37-1.94-2.06l-.22.16c.34 2.41.64 4.83 1.03 7.23.09.55.35 1.15.73 1.55 2.2 2.27 4.45 4.49 6.69 6.73.18.18.39.33.73.62-.23-2.58-.42-4.94-.69-7.3zm-7.04 2c.16 2.56.29 4.86.48 7.16.03.41.28.87.56 1.17 1.34 1.42 2.73 2.79 4.12 4.17.73.73 1.49 1.44 2.23 2.16.11-.03.22-.07.33-.1 0-2.09.01-4.18-.01-6.27 0-.28-.12-.64-.32-.84-2.4-2.45-4.83-4.88-7.39-7.45zm-2.21-2.15c-2.33-2.36-4.68-4.71-7.24-7.28.18 2.54.31 4.79.52 7.03.04.47.29 1.02.61 1.36 1.85 1.92 3.75 3.79 5.63 5.67.43.43.88.85 1.49 1.44-.25-2.71-.46-5.15-.7-7.59-.02-.22-.15-.48-.31-.64zm-6.52 3.13c.13 2.47.21 4.7.37 6.91.03.44.27.96.57 1.28 2 2.07 4.05 4.09 6.08 6.12.15.15.35.26.58.43 0-2.22.02-4.31-.02-6.4 0-.38-.15-.87-.4-1.13-2.31-2.36-4.65-4.68-7.19-7.21zm-1.78 29.34c.24-1.42.02-2.55-1.23-3.4-.34-.24-.61-.59-.9-.9l-4.14-4.32-.27.21v6.68c0 .19.1.42.23.56 1.88 1.92 3.77 3.83 5.85 5.94.16-1.8.2-3.3.45-4.76zm-5.13-28.9c1.85 1.74 3.58 3.62 5.55 5.63-.13-2.57-.22-4.79-.37-7.01-.03-.42-.19-.93-.47-1.23-1.95-2.01-3.95-3.97-6.12-6.13 0 1.9.1 3.57-.03 5.22-.12 1.48.37 2.52 1.44 3.52zm8.2 96.75c0 3.52.59 4.11 3.45 3.46-.14-1.14-.29-2.29-.44-3.46h-3.01zm-9.6-60.38c1.72-.46 3.37-.9 4.91-1.32-1.63-1.67-3.24-3.31-4.91-5.02v6.33zm45.6-85.84c-1.29-1.61-2.64-3.18-3.96-4.77-.09.06-.18.13-.26.19.77 2.83 1.5 5.67 2.33 8.48.22.74.64 1.48 1.14 2.07.96 1.14 2.03 2.18 3.26 3.47.22-2.92.38-5.45-1.4-7.62-.45-.54-.67-1.27-1.1-1.82zm3.75 32.08c-1.92-2.02-3.86-4.04-5.79-6.05-.24.31-.27.41-.24.51.77 2.94 1.54 5.89 2.33 8.82.07.26.19.55.38.73 1.66 1.69 3.33 3.37 5 5.05l.27-.09c-.54-2.81-1.07-5.63-1.62-8.44-.04-.19-.19-.38-.34-.53zm-1.15-11.82v-8.09c0-.23-.05-.52-.2-.67-.95-1.02-1.94-2.01-2.91-3.01l-.15.12c1.04 3.88 2.07 7.76 3.11 11.64h.16zm3.18 23.62c-1.58-1.72-3.26-3.36-5-5.12.33 2.7.63 5.19.95 7.68.04.33.13.72.34.95 1.36 1.44 2.77 2.83 4.16 4.24.1-.04.19-.08.29-.11-.14-2.04-.26-4.08-.42-6.12-.04-.52-.02-1.18-.32-1.51zm-5.57-24.92c-2-2.01-4.01-4.01-6.16-6.16.9 3.37 1.75 6.53 2.61 9.7.05.19.19.38.33.53 1.98 1.99 3.96 3.96 6.12 6.12-.91-3.36-1.76-6.5-2.62-9.63-.05-.2-.14-.41-.28-.55zm-9.77 62.56c1.27.73 2.57 1.48 3.92 2.27.27-.66.53-1.2.7-1.77.07-.22.02-.59-.12-.74-1-1.09-2.05-2.14-3.18-3.31-.47 1.27-.87 2.35-1.32 3.56zm7.64-9.06c.41-2.1.77-3.93 1.1-5.76.04-.23-.08-.56-.25-.74-1.14-1.2-2.32-2.38-3.58-3.66-.36 2.1-.69 3.97-1 5.84-.03.21.03.51.17.66 1.11 1.17 2.25 2.32 3.57 3.66zm-5.66 3.38c-.05.18-.04.47.07.58 1.09 1.12 2.21 2.22 3.41 3.41.53-1.76 1.03-3.31 1.46-4.88.09-.32.06-.82-.14-1.04-1.01-1.14-2.09-2.21-3.28-3.44-.56 1.97-1.05 3.66-1.52 5.37zm7.46-28.2c-1.57-1.56-3.2-3.07-4.67-4.47.17 2.26.35 4.69.54 7.13.02.2.02.47.15.6 1.4 1.42 2.82 2.82 4.3 4.29 0-2.26.01-4.36-.01-6.45 0-.37-.06-.86-.3-1.09zm-19.7-56.2c-.44.49-.77.75-.98 1.09-.63 1.03-1.28 2.06-1.8 3.14-.23.49-.38 1.16-.25 1.66 2.81 10.63 5.66 21.24 8.52 31.85 1.65 6.13 3.3 12.26 3.74 18.65.53 7.65-.01 15.19-1.93 22.62-.69 2.67-1.55 5.29-2.35 8.01 1.21.71 2.47 1.44 3.8 2.23.17-.38.32-.66.42-.96 2.16-5.97 3.67-12.08 4.33-18.4.61-5.82.8-11.68-.19-17.44-1.08-6.29-2.46-12.54-4.05-18.71-2.66-10.3-5.6-20.53-8.42-30.79-.25-.9-.52-1.8-.85-2.95zm-9.89 16.78c-1.1 1.53-2.08 2.89-3.09 4.29 1.89 1.86 3.8 3.76 5.86 5.78-.6-2.95-1.14-5.77-1.79-8.56-.13-.55-.64-1.01-.98-1.51zm-2.34 14.32c.04.26.18.55.37.74 2.35 2.37 4.72 4.72 7.22 7.22-.62-3.09-1.21-5.99-1.8-8.9a.801.801 0 00-.22-.36c-2.17-2.18-4.34-4.35-6.7-6.7.4 2.84.75 5.43 1.13 8.01zm41.44 123.63c-.74-.04-1.48-.02-2.31-.02 1.02 3.6 1.25 3.79 4.22 3.71.06 0 .12-.05.28-.12-.5-1.08-.98-2.17-1.52-3.23-.09-.19-.44-.33-.67-.34zM162.41 56.53c.05.19.19.39.33.53 1.97 1.99 3.94 3.97 5.91 5.96-.71-3.25-1.56-6.41-2.42-9.57-.04-.16-.15-.33-.27-.45-2-2-4.01-3.99-6.12-6.09.88 3.29 1.72 6.46 2.57 9.62zm2.69-13.85c.82 3.07 1.63 6.15 2.46 9.22.05.2.13.43.27.57 2 2.02 4.02 4.02 6.2 6.21-.88-3.32-1.69-6.4-2.53-9.47-.09-.32-.32-.64-.56-.89-1.89-1.92-3.79-3.81-5.69-5.72-.05.03-.1.05-.15.08zm-22.85 34.91c-2.09-2.17-4.23-4.28-6.52-6.57.18 2.52.32 4.78.51 7.04.03.37.11.83.34 1.07 2.27 2.33 4.58 4.63 7.06 7.11-.36-2.63-.68-5-1.03-7.37-.06-.44-.09-1-.36-1.29zm19.31 114.97c-.35-1.29-.67-2.45-.98-3.58h-3.03c.28 1.23.54 2.38.81 3.58h3.2zm-27.33-1.95c.76.4 1.68.5 2.71.78-.09-.89-.17-1.65-.25-2.39h-3.38c.37.68.51 1.4.92 1.61zm37.12 1.93c-.37-1.11-.7-2.15-1.08-3.16-.08-.2-.37-.44-.58-.46-.83-.05-1.68-.02-2.61-.02.41 1.31.77 2.47 1.14 3.64h3.14zM169.4 83.1c1.52 1.63 3.06 3.24 4.59 4.85l.44-.25c-.34-2.27-.73-4.54-1-6.82-.14-1.14-.71-1.92-1.51-2.65-1.05-.96-2.03-1.98-3.02-3-.59-.62-1.14-1.28-1.7-1.92.54 3.15 1.16 6.12 1.8 9.07.06.26.22.52.41.72zm5.15 19.54c.35-1.73-.2-2.96-1.56-4.03-.94-.74-1.72-1.69-2.64-2.6-.11 2.18-.22 4.16-.29 6.15-.01.36.05.82.27 1.06 1.15 1.25 2.36 2.44 3.75 3.86.17-1.69.2-3.09.47-4.44zm-45.43-1.97c2.24 2.26 4.49 4.51 6.82 6.85 0-1.65-.11-3.17.03-4.67.18-1.93-.45-3.34-1.92-4.61-1.78-1.53-3.36-3.3-5.19-5.14 0 2.5 0 4.76.01 7.02 0 .19.12.41.26.55zm6.57 8.94c-2.19-2.26-4.4-4.49-6.6-6.73-.23 2.38-.24 4.64-.22 6.9 0 .19.11.41.24.55 2.1 2.15 4.21 4.3 6.32 6.44.17-.04.35-.09.52-.13 0-2.09 0-4.17-.01-6.26 0-.26-.08-.59-.24-.77zm7.66-37.17c.1 3.09 1.16 5.59 3.66 7.6 1.9 1.53 3.49 3.46 5.22 5.21-.37-2.94-.94-5.75-1.54-8.56-.06-.29-.26-.59-.47-.8-2.39-2.42-4.8-4.82-7.38-7.41.2 1.51.47 2.73.51 3.96zM174 116.13c-.04.19.04.49.18.64.92.96 1.88 1.9 2.82 2.85 1.3-1.44 1.58-3.2 1.95-4.92.03-.15 0-.39-.1-.48-1.18-1.19-2.38-2.36-3.64-3.6-.43 1.93-.84 3.72-1.22 5.52zm2.18 5.09c-.92-.94-1.78-1.83-2.74-2.81-.57 1.77-1.11 3.36-1.59 4.98-.07.25 0 .63.15.83.43.58.94 1.1 1.48 1.72 1.01-1.75 1.87-3.25 2.71-4.72zm-5.87 6.2c.58.34 1.09.64 1.72 1 .23-.43.43-.79.48-.88-.56-.7-1.01-1.27-1.5-1.89-.26.67-.48 1.21-.7 1.77zM175.6 108c-.03.27.11.64.3.84 1.08 1.17 2.21 2.3 3.31 3.45.1-.04.2-.08.29-.12.27-1.89.55-3.78.8-5.68.03-.21-.04-.51-.18-.66-1.23-1.27-2.48-2.51-3.82-3.85-.25 2.1-.5 4.05-.7 6.02zm5.06-3.94c.1-2.48.19-4.62.25-6.76 0-.21-.13-.48-.28-.64-1.36-1.38-2.73-2.74-4.23-4.24 0 2.38 0 4.54.01 6.7 0 .29.08.65.26.84 1.23 1.31 2.5 2.58 3.98 4.1zm-9.35-28.73c.29.3.48.7.71 1.05.1-.1.2-.19.3-.29-.82-3-1.63-6-2.46-8.99-.11-.39-.31-.8-.58-1.09-1.88-1.92-3.79-3.82-5.69-5.72-.06.02-.11.04-.17.06.58 2.18 1.25 4.34 1.72 6.54.45 2.11 1.3 3.89 3.01 5.29 1.15.94 2.14 2.07 3.17 3.15zm-3.86 168.09c-.11.37-.24.73-.41 1.26.94 0 1.72.04 2.49-.02.25-.02.62-.23.7-.44.4-1.04.72-2.11 1.07-3.18q-3.03-.31-3.86 2.39zm-14.32-28.21c-.83-13.64-12.29-23.93-25.8-23.61-15.28.54-25.25 13.26-24.48 26.63.8 13.72 12.52 24.72 27.08 23.65 13.4-.98 24.06-12.52 23.19-26.67zm-25.31 23.48c-11.92-.02-21.76-9.93-21.73-21.87.03-12.18 9.83-21.95 21.99-21.93 12.09.02 21.87 9.86 21.84 21.97-.03 12.11-9.9 21.86-22.1 21.83zm23.2 5.94c.23-1.21.45-2.4.68-3.62h-3.19c-.19 1.21-.37 2.36-.57 3.62h3.08zm-12.34-2.83c-.24.87-.21 1.81-.29 2.81h3.1c.14-1.23.27-2.41.42-3.67-.79 0-1.45-.11-2.04.03-.45.11-1.08.46-1.18.83zm-4.95 2.82h2.96c.08-.83.14-1.59.21-2.31-.11-.06-.14-.09-.17-.08-.65.17-1.29.35-1.93.52-1.29.35-1.32.39-1.06 1.87zm12.53-.02c.18-1.22.36-2.38.54-3.61h-3.2c-.15 1.22-.29 2.39-.44 3.61h3.1zm-18.29-30.73c-1.59.01-2.93 1.34-2.93 2.9 0 1.54 1.37 2.9 2.93 2.91 1.58.01 2.92-1.28 2.97-2.86.05-1.61-1.32-2.97-2.97-2.96zm-.15-2.74c-3.08.06-5.54 2.66-5.45 5.77.09 3.15 2.71 5.65 5.82 5.55 2.95-.1 5.58-2.78 5.49-5.59-.1-3.35-2.6-5.8-5.86-5.73zm.16 10.25c-2.54-.04-4.6-2.14-4.56-4.65.04-2.58 2.06-4.54 4.64-4.52 2.53.02 4.56 2.11 4.53 4.66-.03 2.41-2.21 4.56-4.61 4.52zm-23 23.2h3.08c-.2-1.26-.39-2.44-.57-3.58h-3.2c.24 1.26.47 2.43.69 3.58zm9.12-3.54c.15 1.22.29 2.37.44 3.53h2.99c.01-3.47.09-3.9-3.43-3.53zm14.79 3.55h3.04c.03-.4.05-.74.09-1.25-1.13.11-2.1.21-3.13.31v.94zm-19.19-.33c.03.15.33.36.52.37.84.04 1.69.02 2.63.02-.16-1.29-.31-2.47-.46-3.68h-3.19c.17 1.15.31 2.23.5 3.3zm-8.51-27.52c0-9.46 4.25-16.85 12-22.45H56.62c2.45 2.06 4 4.12 5.24 6.8 2.65 5.75 3.48 11.83 3.14 18.08-.28 5.07-1.24 10.04-3.81 14.49-1.17 2.02-2.75 3.79-4.11 5.62-.14-.03-.05 0 .04 0 13.58 0 27.17 0 40.75-.01 1.46 0 2.07-.28 1.67-1.53-.58-1.84-1.58-3.79-2.98-5.06-1.04-.94-2.97-1.01-4.54-1.23-2.08-.29-3.89-1.01-5.39-2.51-.31-.31-.72-.58-1.14-.7-2.28-.65-4.6-1.22-6.87-1.89-1.36-.4-2.29-.46-3.38.91-1.03 1.29-2.79 2-4.25 2.93-1 .64-1.02 2.14 0 2.75 2.8 1.66 2.84.99.9 4.33-.39.67-.88.73-1.52.36-1.22-.72-2.49-1.37-3.67-2.17-.39-.26-.72-.87-.75-1.34-.09-1.52-.09-3.06 0-4.58.03-.5.28-1.09.63-1.47.98-1.07 2.05-2.06 3.09-3.07-.21-.37-.38-.64-.53-.92-1.3-2.51-1.34-5.05-.01-7.55.34-.65.36-1.16.17-1.86-.35-1.31-.58-2.46-2.02-3.22-1.08-.58-1.15-1.94-.79-3.17.34-1.17.68-2.28.22-3.6-.24-.69.14-1.97.7-2.49 1.45-1.36 2.25-2.77 1.97-4.81-.13-.96.71-1.34 1.48-.7.64.53 1.13 1.25 1.69 1.88.43.49.79 1.07 1.3 1.47 3.59 2.78 5.93 6.39 6.51 10.87.36 2.8 2.84 5.02 6.05 3.89 1.85-.65 3.64-.27 5.24.91.34.25.71.47 1.1.64.89.4 1.67.16 2.32-.51.65-.66.94-1.46.5-2.33-.27-.52-.69-.98-1.09-1.42-2.5-2.66-2.54-6.58-.04-9.25 1.31-1.4 2.7-2.73 4.05-4.1.58-.58 1.12-1.21 1.75-1.71.37-.29.89-.39 1.35-.57.13.44.27.87.39 1.31.03.1 0 .21-.01.32-.66 5-1.29 10-1.98 14.99-.18 1.33-.36 2.7-.88 3.92-.82 1.94-2.48 3.03-4.25 3.42.24 1.81.61 3.5.63 5.2 0 .86.15 1.28.9 1.59 2.78 1.16 4.74 3.11 5.92 5.9.34.81.83 1.58 1.35 2.29.84 1.15 1.12 2.33.52 3.66-.02.04.05.11.07.15h8.99c-7.77-5.59-12-12.99-12-22.48zm25.89 27.89v-1c-1.06-.09-2.05-.17-3.12-.26.07.53.11.89.16 1.26h2.97zm-7.99-2.46c.08.89.14 1.65.21 2.42h3.11c-.04-.55-.07-1.03-.1-1.54-.96-.27-1.88-.53-2.79-.79-.1-.03-.19-.04-.43-.09zm8.87-45.64c-11.18 0-20.21 9.05-20.22 20.27 0 11.11 9.08 20.18 20.22 20.19 11.22.01 20.31-9.04 20.3-20.22 0-11.19-9.09-20.24-20.29-20.24zm7.8 21.46c3.15.86 6.3 1.71 9.45 2.54.6.16 1.15.35.95 1.1-.2.74-.76.66-1.37.49-3.15-.86-6.3-1.7-9.45-2.54-.16-.04-.32-.05-.56.11 1.29.76 2.58 1.53 3.88 2.29 1.63.94 3.27 1.86 4.89 2.81.51.3 1.2.6.75 1.37-.43.74-1.03.37-1.57.06l-8.49-4.89c-.11-.06-.22-.11-.33-.16-.09.1-.18.19-.27.29.62.54 1.27 1.05 1.85 1.63 1.85 1.82 3.68 3.67 5.51 5.5.44.44.93.92.28 1.52-.59.55-1.04.06-1.45-.34-2.07-2.06-4.13-4.11-6.18-6.19-.34-.35-.57-.79-.86-1.2-.13.11-.25.22-.38.32.55.97 1.08 1.94 1.64 2.9 1.15 2 2.31 4 3.48 5.99.31.53.55 1.09-.13 1.46-.67.37-1.02-.13-1.33-.66-1.52-2.65-3.06-5.29-4.59-7.93-.17-.3-.36-.58-.74-.8.32 1.24.64 2.49.98 3.73.55 2.06 1.08 4.12 1.67 6.16.18.64.19 1.18-.5 1.38-.74.21-.96-.37-1.12-.96-.88-3.28-1.76-6.56-2.81-9.85-.03.2-.1.41-.1.61 0 3.17-.01 6.33 0 9.5 0 .65-.04 1.33-.83 1.34-.78 0-.88-.64-.88-1.31.02-3.38 0-6.75-.16-10.18-.09.19-.2.38-.25.58-.84 3.11-1.66 6.23-2.51 9.35-.27.99-1 1.31-1.46.65-.2-.28-.19-.81-.09-1.17.8-3.09 1.64-6.17 2.47-9.25a.92.92 0 00-.08-.69c-1.15 1.98-2.31 3.95-3.46 5.93-.59 1.01-1.17 2.03-1.75 3.05-.3.52-.77.92-1.27.46-.25-.24-.3-1.01-.11-1.36 1.55-2.8 3.17-5.55 4.77-8.32.11-.2.2-.41.29-.62-.09-.07-.17-.15-.26-.22-1.29 1.34-2.56 2.7-3.86 4.03-1.07 1.1-2.15 2.18-3.23 3.25-.41.4-.86.9-1.45.35-.61-.58-.2-1.07.26-1.53 2.42-2.4 4.84-4.8 7.27-7.19-.06-.08-.13-.16-.19-.23-2.69 1.55-5.39 3.11-8.08 4.66-.31.18-.62.34-.93.52-.52.31-1.11.42-1.34-.21-.11-.3.19-.96.49-1.16 1.71-1.08 3.48-2.06 5.24-3.08 1.24-.72 2.49-1.44 3.67-2.35-.21.03-.42.05-.62.1-3.09.82-6.17 1.63-9.25 2.47-.6.16-1.19.3-1.41-.45-.24-.82.39-.99 1.01-1.16 3.15-.83 6.3-1.68 9.45-2.53.12-.03.23-.11.63-.3-.55-.05-.8-.1-1.05-.1h-9.39c-.61 0-1.32.06-1.31-.83.02-.86.71-.83 1.33-.83h9.39c.24 0 .47 0 .76-.23-1.88-.51-3.75-1.03-5.63-1.54-1.4-.38-2.82-.73-4.22-1.11-.56-.15-1.19-.34-.99-1.11.21-.84.89-.66 1.48-.51 3.08.82 6.16 1.66 9.24 2.49.19.05.38.08.67-.09-1.42-.82-2.83-1.65-4.25-2.47-1.54-.89-3.08-1.76-4.62-2.66-.5-.29-1.09-.64-.66-1.32.39-.62.97-.36 1.5-.06 2.78 1.58 5.56 3.16 8.34 4.73.18.1.36.18.55.27l.24-.24c-.28-.21-.58-.39-.82-.63-2.13-2.14-4.25-4.29-6.39-6.42-.46-.46-.92-.95-.34-1.52.59-.57 1.05-.09 1.51.38 2.3 2.32 4.63 4.61 6.96 6.9.06.06.17.07.42.18-1.18-2.11-2.27-4.08-3.38-6.04-.59-1.05-1.21-2.09-1.85-3.11-.34-.53-.45-1.08.19-1.32.31-.11.98.14 1.17.44 1.01 1.62 1.92 3.31 2.88 4.97.78 1.34 1.57 2.67 2.57 3.93-.12-.52-.24-1.04-.38-1.56-.73-2.74-1.46-5.48-2.22-8.22-.16-.59-.3-1.17.44-1.41.79-.25.95.39 1.11.95l2.55 9.34c.04.13.1.25.41.38v-1.04-8.64c0-.71-.25-1.71.87-1.7 1.04 0 .81.96.81 1.64v9.75c.09 0 .17.02.26.03.27-.96.54-1.92.8-2.89.62-2.29 1.24-4.59 1.85-6.89.15-.58.33-1.19 1.09-1 .8.2.7.8.52 1.45-.86 3.11-1.68 6.23-2.51 9.35a.68.68 0 00.09.58c.57-.96 1.14-1.91 1.7-2.88 1.14-1.97 2.27-3.94 3.41-5.9.3-.52.61-1.19 1.37-.71.71.44.37 1.01.04 1.56-1.69 2.9-3.36 5.82-4.91 8.86.17-.13.36-.24.51-.39 2.27-2.26 4.52-4.53 6.81-6.77.27-.26.73-.51 1.08-.48.76.07.82.92.11 1.63-1.77 1.8-3.57 3.57-5.35 5.36-.64.65-1.25 1.32-2 2.13.35-.14.56-.2.74-.3 2.77-1.59 5.54-3.18 8.31-4.79.57-.33 1.16-.61 1.56.09.42.74-.24 1.07-.77 1.38l-8.04 4.62c-.25.15-.48.34-.64.68 2.65-.71 5.31-1.41 7.96-2.12.65-.17 1.3-.37 1.95-.53.57-.14 1.2-.25 1.4.51.2.77-.41.97-.97 1.12-2.74.73-5.49 1.45-8.23 2.18-.56.15-1.11.32-1.62.7h9.99c.63 0 1.41-.13 1.44.81.03.98-.77.84-1.4.84h-10.31c.39.23.52.36.68.4zm48.49 21.26v-6.57c-.07 0-.14-.01-.21-.02-.58 2.18-1.15 4.37-1.74 6.59h1.94zM134.39 79.37c-1.75-1.83-3.53-3.63-5.52-5.65 0 2.56 0 4.78.01 7 0 .22.12.49.27.64 1.95 2 3.92 3.98 6.08 6.17-.19-2.6-.36-4.9-.55-7.19-.03-.33-.09-.75-.3-.97zm53.53 141.11c-.79-3.09-3.54-5.08-6.92-5.06-.53 0-1.11-.17-1.59-.41-1.34-.7-2.64-1.48-4.04-2.28-.33.59-.55 1.18-.95 1.6-.27.28-.79.32-1.19.46-.07-.43-.33-.94-.18-1.27.39-.91.95-1.74 1.46-2.6.67-1.13.79-2.23-.03-3.37-.77-1.07-1.82-1.35-3.06-1.34.42 1.1-.03 1.92-1.42 2.13-1.02.16-1.55.66-1.95 1.5-.16.35-.42.66-.58 1.02-.46 1.06-1.33 1.62-2.4 1.69-.81.06-1.17.45-1.5 1.08-.52.99-1.15 1.9-2.48 1.83 0 1.82-.1 3.57.02 5.29.18 2.47 2.79 5.04 5.17 5.21 0-.68-.09-1.36.04-2.01.06-.32.51-.56.78-.84.28.3.81.6.8.89-.14 4.06.63 8.17-.81 12.15-.35.96-.53 1.98-.81 3.04.79.23 1.04-.03 1.26-.73 1.03-3.31 1.73-6.65 1.48-10.15-.03-.39.28-.95.61-1.21 2.49-1.96 3.09-4.05 2.06-7.16-.12-.36.04-1.06.31-1.23.56-.35 1.08.06 1.19.64.26 1.31.7 2.67.52 3.94-.21 1.47-1.02 2.85-1.66 4.5 2.46-.38 4.94-.76 7.51-1.15 0-.89-.08-1.75.04-2.58.05-.34.5-.63.78-.95.27.31.79.62.78.92-.12 4.06.6 8.17-.83 12.15-.35.97-.53 2.01-.78 3.01.77.21 1.05.01 1.21-.62.75-2.95 1.57-5.89 2.34-8.84.19-.71.47-1.22 1.2-1.59 2.94-1.48 4.38-4.63 3.6-7.66zm-10.73 18.78c.26 0 .65-.36.74-.63.34-.97.55-1.98.86-2.95.74-2.35.99-4.74.67-7.37-2.92.46-5.74 1.52-8.91.62.66 3.73-.64 6.94-1.49 10.37 2.82 0 5.48.02 8.14-.03zm-.1-198.61c0-1.88-.04-3.77.04-5.65.01-.34.54-.65.83-.97.27.31.59.59.79.94.11.19.02.49.02.74v28.75c2.44.63 4 1.51 5.78 3.22.89.86 1.79 1.72 2.73 2.53 1.24 1.07 2.83.69 3.52-.79.48-1.04.07-1.85-.67-2.58-1.74-1.73-3.49-3.45-5.2-5.2-1.9-1.94-1.95-4.88-.12-6.84 1.12-1.19 2.29-2.33 3.47-3.46.78-.75 1.19-.68 1.75.27 1.02 1.75 2.02 3.51 3.04 5.26.84 1.44 1.63 2.92 2.58 4.29.89 1.3 1.66 1.31 2.76.23-.37-.56-1.41-1.03-.61-1.83.84-.85 1.24.31 1.98.7.12-.11.29-.27.53-.5-.69-.65-1.3-1.11-1.74-1.7-.2-.28-.07-.8-.09-1.22.41.02.94-.1 1.21.1.58.45 1.03 1.06 1.68 1.76.25-.27.41-.44.52-.56-.9-.95-1.69-1.76-2.47-2.59-.37-.4-.76-.85-.26-1.38.54-.57 1.03-.23 1.45.22.74.8 1.46 1.6 2.37 2.6.3-1.23.19-1.98-.44-2.62-.47-.48-.92-.99-1.41-1.45-.76-.73-1.44-1.57-2.65-1.65-.22-.01-.61-.58-.57-.83.05-.27.58-.72.77-.66.92.27 1.88.57 2.67 1.1.64.43 1.04 1.21 1.53 1.82 1.73-1.63 1.98-2.85.83-4.03-2.85-2.92-5.78-5.76-8.94-8.89-.03.74-.19 1.27-.05 1.71.87 2.9.16 5.4-1.86 7.56-.21.23-.7.32-1.03.28-.2-.03-.51-.48-.47-.7.06-.35.31-.69.56-.98 1.33-1.57 2-3.42 1.24-5.33-.56-1.39-.2-2.35.49-3.41.14-.21.26-.42.38-.64.7-1.26.51-2.52-.7-3.26-2.41-1.49-4.89-2.87-7.4-4.33-.1.41-.13.74-.27 1.02-.6 1.15-1.2 2.3-1.88 3.41-.3.49-.81.88-1.41.3-.53-.51-.2-.93.16-1.38.4-.49.8-1.01 1.08-1.57 1.17-2.29.51-5.21-1.57-7.05-2.12-1.88-4.97-2.33-7.05-.73-2.11 1.64-3.95 3.63-5.87 5.43 2.67 4.63 5.24 9.07 7.97 13.8v-3.25zm23.83 148.76c.98.93.84 2.83 2.72 3.29-.43-1.68-1.26-2.74-2.72-3.29zm-58.03 4.94c7.78 5.61 11.98 13.04 11.95 22.53-.03 9.46-4.31 16.83-12.07 22.39h16.32c.09-.22.2-.41.25-.61 1.02-3.8 2.01-7.61 3.07-11.41.19-.7.1-1.13-.45-1.65-1.7-1.6-2.65-3.57-2.59-5.97.03-1.32-.04-2.63.02-3.95.03-.72-.16-1.15-.81-1.51-1.33-.75-1.55-1.41-1.15-2.93.45-1.72.97-3.42 1.31-5.16.16-.82.11-1.76-.12-2.57-.73-2.58-.43-4.93 1.34-6.99.26-.31.82-.36 1.25-.53.12.42.29.84.35 1.27.04.31-.08.63-.08.95-.05 1.99.7 3 2.59 3.5.69.18 1.42.25 2.05.54 1.37.62 2.37.05 3.15-.96.48-.62.69-1.45 1.09-2.14.17-.31.53-.75.77-.73.32.03.64.42.89.71.14.17.19.47.18.71-.09 1.53-.2 3.05-.31 4.59 3.73.28 5.75 3.71 4.36 6.84 1.24.71 2.39 1.41 3.59 2.04.45.23.98.38 1.49.41 3.43.19 6.11 1.61 7.61 4.78 1.48 3.11 1.02 6.06-.97 8.84-.24.33-.36.94-.24 1.32.88 2.74 1.27 5.52 1.07 8.39-.05.7 0 1.4 0 2.17h10.64c-2.31-1.86-3.9-4.07-5.12-6.59-2.03-4.19-3.03-8.65-3.21-13.26-.36-9.28.98-18.07 8.04-25.04H142.9zm45.87-5.4c-.8-.04-1.6-.02-2.5-.02.53 1.17 1 2.23 1.5 3.27.09.18.32.4.5.41.87.04 1.74.02 2.79.02-.63-1.22-1.16-2.29-1.73-3.34-.09-.17-.37-.34-.57-.35zm-27.77 17.92c-.81.46-1 1.11-1.18 1.87-.22.9-.41 1.8-.71 2.67-.25.73-.13 1.15.59 1.54 2.06 1.14 1.74 1.14 2.79-.76.15-.28.27-.61.5-.81.26-.23.65-.51.95-.47.88.1 1.63.04 2.08-.86.38-.75.82-1.48 1.16-2.25.19-.44.24-.95.36-1.49-.2-.28-.74-.69-.76-1.12-.05-1.12-.79-1.27-1.59-1.46-.69-.16-1.38-.32-2.06-.54-1.01-.32-1.81-.11-2.44.86 1.08 1.07 1.26 2.29.31 2.83zm3.35-1.73c.88 0 1.64.77 1.63 1.64-.01.85-.81 1.62-1.68 1.6-.89-.02-1.64-.78-1.61-1.65.02-.89.76-1.6 1.66-1.59zm.51 39.49c.23-.02.57-.28.65-.51.35-.99.62-2.01.95-3.1q-3.15-.35-3.84 2.5c-.08.34-.14.68-.23 1.12.87 0 1.68.04 2.48-.02zm-11.44-3.24c-.25 1.05-.44 2.12-.66 3.27.9 0 1.69.05 2.46-.03.26-.02.65-.29.71-.53.29-.98.48-1.99.75-3.17-1 0-1.85-.03-2.7.02-.2.01-.52.25-.57.44zm12.24-6.46c.46-1.56.57-3.21.83-4.83l-.33-.06c-.81 3.04-1.62 6.08-2.43 9.11.12.06.24.12.36.19 1.23-1.17 1.12-2.93 1.56-4.42zm-3.57 3.85c1.04-3.71 2.01-7.44 3.01-11.21-.33-.14-.61-.26-.95-.4-.54 2.04-1.06 4.02-1.59 6-.54 2-1.09 4-1.63 6.01.08.08.16.16.23.24.32-.21.85-.36.92-.63zm-3.19 2.18c-.22.02-.54.3-.6.52-.29 1.01-.5 2.04-.74 3.07q2.91.44 3.65-2.22c.11-.4.22-.81.38-1.39-.99 0-1.84-.04-2.68.02zm10.28-36.21c.46-.54.83-1.15 1.23-1.74-.06-.04-.12-.09-.19-.13-.55.35-1.12.66-1.62 1.06-.17.14-.15.51-.22.77.27.02.69.16.79.04zM147.11 46.71c-.57.99-.42 3.89.37 4.71 2.4 2.46 4.86 4.87 7.45 7.46-.88-3.28-1.68-6.29-2.5-9.29-.07-.27-.15-.58-.33-.77-1.27-1.32-2.57-2.61-3.91-3.97-.41.71-.76 1.29-1.09 1.87zm-30.62 10.18c-.32 2.25-.63 4.46-.94 6.68l5.02-4.9c-1.32-.58-2.64-1.15-4.08-1.78zm19.13 1.72c1.61 1.64 3.22 3.3 4.89 5.01-.32-2.27-.63-4.5-.95-6.73-1.41.61-2.74 1.19-3.95 1.72zm13.51-15.37c.77.8 1.46 1.5 2.25 2.32-.39-1.44-.74-2.74-1.16-4.27-.46.82-.8 1.43-1.09 1.95zm-27.64 33.62c.1.05.19.09.29.14 1.04-1.05 2-2.21 3.14-3.14 1.94-1.58 2.62-3.51 2.29-5.95-.15-1.16-.03-2.36-.03-3.78-1.41 1.42-2.54 2.72-3.84 3.81-.95.8-1.34 1.62-1.36 2.88-.02 2.01-.32 4.02-.5 6.03zm13.8-11.72c-.03 2.23.46 4.17 2.44 5.48.2.13.35.35.52.53 1.22 1.25 2.44 2.51 3.84 3.96-.39-2.9-.72-5.45-1.09-8.01-.05-.32-.22-.68-.45-.92-1.75-1.81-3.52-3.58-5.53-5.61.11 1.75.28 3.16.25 4.57zm-9.41-1.99c1.54-1.19 1.44-2.66 1.22-4.28h-4.23c-.18 2.57-.36 5.08-.55 7.75 1.28-1.26 2.32-2.5 3.57-3.47zm58.29 34.36c-.53-2.52-1-4.78-1.52-7.24 0 1.72.06 3.21-.02 4.68-.06 1.07.28 1.83 1.54 2.56zm2.97-40.46c.51 1.86.85 3.76 1.27 5.64.01.05.11.09.24.19 1.48-.84 3-1.7 4.52-2.55-1.42-2.45-2.79-4.81-4.2-7.23-1.41 1.01-2.35 2.09-1.84 3.95zm5.49 134.98c.13.24.42.52.66.54.83.07 1.66.03 2.63.03-.42-.78-.77-1.41-1.1-2.07-.89-1.76-1.52-2.03-3.7-1.49.53 1.05 1 2.03 1.52 2.99zm-.75-128.81c-.06-.06-.12-.13-.18-.19-.61.37-1.22.75-1.89 1.16.34.32.6.57.93.88.41-.67.78-1.26 1.14-1.85zm-10.66 48.91l.16.1c.38-.97.71-1.97 1.15-2.91.37-.8.21-1.29-.6-1.65-.24 1.52-.47 2.99-.7 4.46zM85.05 222.49c.84-.13.9.53.96 1.19.27 3.1 2.49 5.53 5.43 6.02 1.15.19 2.28.51 3.43.67 2.27.31 3.98 1.29 4.77 3.57.16.46.45.89.74 1.29.85 1.18 1.32 2.4.66 3.83-.02.04.06.11.09.17 1.23.09 2.09-1.07 1.51-2.12-1.98-3.62-3.67-7.51-8.04-9-.07-.02-.12-.08-.18-.1-.72-.29-.9-.82-.73-1.55.5-2.12.04-4.08-1.08-5.91-.71-1.16-.44-1.64.94-1.68 2.25-.08 3.96-1.4 4.4-3.61.34-1.67.5-3.37.72-5.06.46-3.48.91-6.95 1.37-10.43-.07-.06-.14-.11-.2-.17-1.28 1.32-2.54 2.65-3.83 3.95-2.41 2.43-2.38 5.38.08 7.78 1.59 1.54 1.74 3.84.36 5.47-1.4 1.65-3.65 1.9-5.44.49-1.45-1.14-2.94-1.34-4.68-.79-3.4 1.08-6.86-1.05-7.41-4.57-.7-4.46-2.7-8.1-6.38-10.78-.56-.41-1.02-.96-1.3-1.22-.32.51-.68 1.19-1.15 1.79-.41.53-1.03.91-1.37 1.48-.26.42-.5 1.2-.29 1.51.55.81.37 1.52.13 2.31-.2.64-.39 1.29-.52 1.95-.17.88.18 1.47 1.07 1.72.69-1.51 1.63-2.87.83-4.59-.14-.31.03-1.04.3-1.22.56-.37.97.07 1.21.62.66 1.53.64 3.03-.18 4.5-.94 1.69-.91 3.36-.08 5.1.17.37.09 1.04-.15 1.4-1.7 2.56-1.69 5.22.19 7.71.52.69.45 1.17-.15 1.72-.83.77-1.59 1.63-2.44 2.39-.77.68-.96 1.47-1.07 2.49-.29 2.54.33 4.37 3.27 4.95.08-.14.23-.42.39-.71-.58-.34-1.05-.67-1.56-.9-.78-.35-.94-.92-1.07-1.75-.34-2.15.53-3.42 2.47-4.14.3-.11.54-.34.83-.47 2.53-1.21 3.8-3.19 3.82-6.01 0-.35.49-.69.76-1.04.28.34.77.67.8 1.03.08.82-.06 1.67-.11 2.55 2.56.68 5.1 1.36 7.65 2.04-.17-.88-.34-1.64-.46-2.41-.1-.62-.12-1.32.68-1.44zm-8.21-6.35c-.29.02-.8-.37-.87-.67-.23-.96-.34-1.95-.43-2.94-.29-2.98-1.54-5.49-3.66-7.58-.43-.43-1-.87-.35-1.49.61-.58 1.08-.11 1.53.33 2.49 2.43 3.85 5.38 4.17 8.84.08.88.21 1.76.35 2.89-.17.16-.45.61-.75.63zm106.6-109.59c.22-1.85.37-3.56.66-5.26.22-1.29-.53-1.87-1.43-2.53-.15 1.91-.25 3.71-.45 5.5-.11.95.12 1.65 1.22 2.29zm-5.16 70.21c-4.07.16-6.81-3.12-6.78-6.71.11-13.01.03-26.02.06-39.03 0-.75-.24-1.14-.87-1.5-2.97-1.68-5.9-3.41-8.86-5.11-.88-.51-1.77-.98-2.75-1.52-.46 2.62-.9 5.09-1.33 7.56-1.37 7.86-2.76 15.72-4.1 23.59-.07.44.06.99.28 1.39 1.51 2.7 3.07 5.36 4.61 8.04 4.42 7.66 8.83 15.32 13.26 22.97.18.31.51.75.77.76 2.61.06 5.21.03 7.95.03-1.26-2.18-2.42-4.21-3.59-6.23-.32-.56-.79-1.19.03-1.63.8-.43 1.11.3 1.43.85 1.21 2.09 2.4 4.19 3.63 6.27.18.3.5.68.8.71.86.09 1.74.03 2.78.03-1.29-2.24-2.48-4.33-3.68-6.4-.31-.53-.59-1.06.11-1.45.68-.38 1.02.1 1.33.64 1.26 2.19 2.51 4.37 3.8 6.53.17.29.52.62.82.65.84.09 1.69.03 2.73.03-2.02-3.49-3.92-6.78-5.86-10.04-.15-.25-.62-.43-.94-.44-1.88-.04-3.77-.08-5.65 0zm-90.9 64.19c-.87-.05-1.74-.02-2.72-.02.4 1.17.73 2.21 1.13 3.22.09.22.43.46.67.48.8.06 1.61.02 2.51.02-.36-1.16-.66-2.21-1.02-3.23-.07-.2-.36-.46-.57-.47zm-25.43-51.68c-.63 1.05-1.19 2.14-1.83 3.33.89 0 1.67.06 2.42-.03.35-.04.82-.29.98-.58.56-.97 1-2 1.52-3.07-.84 0-1.57-.03-2.3.02-.28.02-.68.13-.8.33zm3.33-124.28c.36-.29.63-.51.98-.78-.71-.43-1.3-.79-1.9-1.16-.05.05-.1.09-.16.14.36.6.72 1.21 1.08 1.8zm2.5-2.57c.31-1.54.52-3.12.94-4.63.67-2.42.47-3.15-1.66-4.65-1.37 2.38-2.75 4.76-4.16 7.2 1.56.89 3.06 1.74 4.59 2.62.13-.24.26-.38.29-.54zm35.24 182.22c.07 0 .13-.05.26-.11-.19-.99-.35-1.99-.59-2.99-.06-.23-.36-.56-.57-.58-.87-.07-1.75-.03-2.63-.03.41 3.63.69 3.92 3.54 3.7zm-5.73-3.67c-.9-.07-1.81-.03-2.81-.03.3 1.13.52 2.13.85 3.09.09.27.48.57.76.61.76.08 1.54.03 2.44.03-.26-1.14-.46-2.1-.73-3.05-.07-.25-.33-.63-.52-.64zm17.44-171.31c.01.13-.06.28-.08.42-.25 1.6-.5 3.19-.76 4.82.18-.02.27 0 .31-.03 2.05-2.05 4.1-4.1 6.14-6.17.13-.13.23-.36.24-.55.15-2.4.28-4.8.43-7.52-1.36 1.38-2.42 2.58-3.61 3.63-1.67 1.45-2.93 3.04-2.67 5.41zm-22.3 171.31c-.93-.05-1.85-.02-2.86-.02.18.54.3.91.41 1.28q.78 2.62 3.74 2.36c-.29-1.1-.55-2.12-.85-3.13-.06-.19-.28-.47-.44-.48zm-34.18-52.04c-.33.02-.83.02-.97.22-.74 1.09-1.39 2.25-2.12 3.47.92 0 1.66.05 2.39-.02.32-.03.76-.22.91-.48.61-.99 1.13-2.03 1.76-3.2-.78 0-1.38-.02-1.98 0zm46.51-143.64c.71-.61 1.47-1.28 2.24-1.95-.39-.66-.74-1.23-1.19-1.99-.4 1.5-.74 2.77-1.05 3.94zm-32.8 52.02c.12.05.23.1.35.15.36-.49 1-.96 1.04-1.48.13-1.82.05-3.66.05-5.67-.5 2.43-.97 4.72-1.43 7zm-.91 80.13c-1.82 3.05-3.58 6.13-5.35 9.21-.09.16-.13.35-.22.6.7 0 1.31-.05 1.91.01.8.08 1.27-.18 1.67-.93 1.13-2.09 2.36-4.13 3.56-6.19.31-.53.62-1.19 1.37-.76.81.46.38 1.08.05 1.64-1.02 1.75-2.04 3.5-3.05 5.25-.16.28-.31.57-.53.98.77 0 1.35-.06 1.91.01.96.14 1.46-.29 1.9-1.11 1.06-1.97 2.21-3.89 3.34-5.82.33-.56.6-1.41 1.48-.95.92.48.31 1.15 0 1.71-1.14 2-2.29 3.99-3.55 6.15 2.48 0 4.76-.06 7.03.03.97.04 1.44-.32 1.9-1.12 5.82-10.13 11.66-20.25 17.53-30.35.45-.77.52-1.48.37-2.31-1.21-6.78-2.39-13.56-3.58-20.34-.59-3.38-1.19-6.75-1.8-10.22-.25.11-.41.16-.55.25-3.76 2.16-7.5 4.34-11.27 6.47-.63.36-.64.82-.64 1.41v39.26c0 3.77-2.77 6.49-6.57 6.44-1.92-.02-3.84-.04-5.76.03-.39.01-.93.32-1.13.65zm.96-77.05c.05 2 .35 4 .55 5.99.14.02.28.05.41.07.29-.42.84-.85.83-1.26-.06-2.13-.26-4.25-.41-6.38-.65.47-1.41 1.03-1.39 1.57zm2.67 11.82l.18-.06c-.23-1.47-.47-2.95-.7-4.42-.1-.04-.19-.07-.29-.11-.16.42-.54.91-.44 1.26.32 1.14.82 2.23 1.25 3.33zm29.04-62.99c-.86 3.15-1.7 6.3-2.54 9.46 2.54-2.32 5.07-4.61 7.25-7.21.78-.93.95-2.59.91-3.89-.03-.9-.92-1.77-1.54-2.84-1.29 1.35-2.49 2.6-3.68 3.87-.17.18-.33.39-.4.61zm24.29-8.1c-.28-.3-.68-.56-.8-.92-.14-.4-.03-.89-.03-1.44h-5.1c3.22 5.53 8.91 5.27 11.85.01h-5.07c0 .56.11 1.05-.03 1.46-.12.35-.54.6-.82.89zm9.25-2.68c-.01 1.84 0 3.69 0 5.67 1.18-.48 1.75-1.29 1.81-2.33.09-1.61.02-3.23.02-4.89-1.8.8-1.82.8-1.83 1.55zm-8.31-3.77c1.31 0 2.62.09 3.92-.02 2.88-.25 5.18-1.59 6.78-4.02.15-.22.02-.62.02-.94-1.53 2.09-3.3 3.58-5.72 4.03-1.41.26-2.89.13-4.34.22-.27.02-.53.26-.79.4.05.11.09.22.14.33zm12.36-2.19c.17-.23.15-.6.22-.9-.14-.03-.28-.06-.41-.1-1.66 2.42-3.85 4.1-6.75 4.61-1.59.28-3.24.2-4.87.31-.22.01-.42.22-.63.34.21.11.43.32.64.32 1.31.02 2.63.1 3.93-.04 3.26-.35 5.89-1.9 7.86-4.53zm-6.21-10.61c2.38.31 3.78-1.1 4.97-2.68-.64-.7-1.27-1.32-1.8-2.01-1.08-1.4-3.11-1.81-4.55-.82-.25.17-.36.55-.53.84.1.04.19.08.29.12 1.65-1.27 3.1-1.24 4.2.1.49.6.96 1.21 1.43 1.82-1.53 2.13-3.21 2.59-5.37 1.48.11.88.27 1.01 1.36 1.15zm-6.21 10.39c1.36 0 2.65.09 3.91-.02 2.1-.19 3.72-1.27 4.92-3.01.48-.7.43-1.21-.42-1.61-.7 1.56-1.73 2.88-3.44 3.22-1.61.32-3.28.33-4.96.47v.94zm1.28-3.56c0 .21.02.42.04.88 1.07-.08 2.07-.03 3.02-.26 1.33-.32 2.19-1.28 2.59-2.59.33-1.07-.77-1.3-1.2-1.92-.13-.18-.32-.32-.54-.52.08 1.88-.7 2.77-2.32 2.76q-1.63 0-1.59 1.65zm5.39-9.14c.41.05.85-.1 1.47-.2-.4-.5-.6-.92-.93-1.11-.27-.15-.74-.12-1.04 0-.21.09-.45.62-.37.74.19.27.55.52.87.56zm10.68-.03c-1.55-2.83-3.18-5.63-4.87-8.38-2.41-3.94-7.67-5.25-11.71-3.04-.61.34-.87.72-.81 1.43.07.74.11 1.51-.02 2.23-.07.37-.53.67-.81 1-.28-.33-.75-.64-.81-1.01-.12-.84 0-1.7-.06-2.55-.02-.3-.2-.69-.43-.86-3.37-2.41-9.4-1.36-11.62 2.16-1.95 3.08-3.79 6.25-5.51 9.47-2 3.75-.85 7.95 2.61 10.34.61.42.99.42 1.52-.14 1.77-1.84 3.61-3.63 5.42-5.44.33-.33.65-.67 1.07-1.11-2.12-.25-3.65-1.14-4.93-2.62-.5-.58-1.35-.83-2.01-1.28-.32-.22-.55-.55-.83-.83.31-.28.61-.79.94-.81 1.38-.09 2.31-.78 3.06-1.86 1.01-1.47 2.42-2.16 4.2-2.04.65.05 1.28.2 2 .32-.31-.55-.58-1.05-.87-1.54-1.17-1.91-1.42-1.99-3.6-1.58-.32.06-.72-.34-1.09-.53.19-.33.31-.8.59-.96 1.75-.98 3.91-.36 5.01 1.39.55.87 1.08 1.76 1.53 2.68.23.48.41 1.07.37 1.59-.24 2.83-.56 5.66-.86 8.48q-.14 1.37 1.31 1.34c1.59-.03 2.46.79 2.52 2.36.01.36.01.71 0 1.07-.04.75.32.82.97.56 0-.62-.04-1.23 0-1.83.11-1.42.96-2.17 2.38-2.17.25 0 .5.03.75.03.61 0 .87-.21.78-.91-.36-2.86-.67-5.72-.96-8.58-.05-.54-.04-1.17.19-1.64.52-1.08 1.15-2.12 1.81-3.13.98-1.51 2.96-2.1 4.61-1.43.54.22 1.12.48.85 1.22-.27.75-.82.57-1.41.35-1.01-.39-1.95-.15-2.59.68-.6.78-1.02 1.69-1.6 2.68 3.05-.96 4.69-.44 6.5 1.92.68.89 1.54 1.41 2.69 1.53.37.04.7.52 1.05.8-.3.29-.57.62-.91.85-.58.39-1.37.59-1.77 1.1-1.29 1.61-2.9 2.54-4.94 2.78 2.38 2.36 4.72 4.67 7.15 7.07 4.1-2 5.51-6.83 3.13-11.16zm-32.46 32.14c2.15 3.55 5.46 5.51 9.74 5.52 2.84 0 5.69-.05 8.53.01 4.73.09 8.19-2.07 10.53-6.02 3.71-6.26 7.34-12.57 10.94-18.9 1.93-3.4 2.5-7.04 1.62-10.9-.91-4.01-3.51-7.16-5.39-10.91-.64.69-1.15 1.26-1.68 1.82-.43.45-.91.77-1.45.21-.52-.54-.14-.96.26-1.36.85-.86 1.75-1.67 2.54-2.58.48-.55.94-1.19 1.16-1.87.69-2.07-.25-4.49-2.13-5.8-1.73-1.2-4.14-1.15-5.92.43-1.67 1.47-3.12 3.17-4.7 4.8 2.11.84 3.86 2.24 5.05 4.27 1.66 2.81 3.33 5.62 4.9 8.48 2.64 4.79 1.19 10.22-3.46 13.06-.56.35-.74.71-.73 1.35.04 2.95.02 5.9 0 8.85 0 .41-.04.88-.23 1.22-1.27 2.26-2.49 4.56-3.91 6.72-1.63 2.48-3.92 3.93-7.04 3.87-2.88-.06-5.76-.06-8.64 0-3.38.08-5.75-1.55-7.45-4.29-1.22-1.96-2.34-3.98-3.46-6-.24-.44-.4-.99-.41-1.49-.04-2.88-.05-5.76 0-8.64.01-.83-.22-1.31-.97-1.76-4.21-2.55-5.75-7.79-3.52-12.17 1.16-2.27 2.62-4.38 3.76-6.65 1.51-2.99 3.27-5.67 6.84-6.94-2-1.82-3.72-3.64-5.7-5.11-2.11-1.56-4.8-.96-6.45 1.1-1.68 2.08-1.6 4.68.21 6.58.83.87 1.71 1.71 2.56 2.57.4.4.74.85.22 1.37-.49.49-.97.27-1.38-.18-.53-.58-1.06-1.15-1.72-1.86-1.46 2.57-2.9 4.85-4.1 7.26-2.4 4.81-2.41 9.69.23 14.39 3.68 6.56 7.42 13.1 11.32 19.54zM144.86 4.3c-.52.53-1.05 1.06-1.58 1.59-.42.43-.96.69-1.34.12-.18-.27-.08-.94.15-1.24.48-.65 1.11-1.19 1.7-1.75.86-.82 1.87-1.05 2.94-.53 1.12.55 1.82 1.44 1.89 3.03-.12.27-.26.87-.62 1.25-.25.27-.89.47-1.21.35-.56-.22-.52-.77-.15-1.24.48-.59.33-1.13-.19-1.59-.51-.46-1.07-.53-1.6.01zm-35.19-.05c-.29.36-.49 1.09-.32 1.46.29.64.54 1.21-.22 1.47-.33.11-1.03-.31-1.3-.69-.59-.8-.52-1.75-.03-2.61.58-1.01 1.45-1.63 2.91-1.67.22.09.7.19 1.03.47.82.68 1.61 1.39 2.31 2.18.21.24.05.79.06 1.2-.41-.02-.93.12-1.2-.08-.65-.48-1.18-1.12-1.75-1.7-.5-.52-1.11-.49-1.49-.02zm25.91 39.95v-4.72c-.94 1.14-1.78 2.14-2.62 3.15.87.52 1.69 1.01 2.62 1.56zm-21.44-2.16c0 .36.17.75.35 1.08 1.06 1.89 2.1 3.79 3.24 5.63 1.4 2.25 3.34 3.59 6.14 3.52 2.81-.07 5.62-.07 8.42 0 2.26.06 4.11-.82 5.34-2.57 1.56-2.23 2.83-4.67 4.21-7.02.05-.09.08-.2.08-.31v-7.84c-1.02.52-1.21 1.29-1.17 2.25.06 1.45.01 2.91.02 4.37 0 1.85-.67 3.34-2.33 4.25-1.71.93-3.31.62-4.9-.45-.6-.41-1.43-.64-2.16-.67-2.09-.09-4.19 0-6.29-.05-1.08-.03-2.01.19-2.88.86-1.41 1.08-2.96 1.14-4.51.35-1.6-.82-2.35-2.21-2.38-3.99-.02-1.49-.06-2.99 0-4.48.05-1.02-.11-1.88-1.21-2.46 0 2.55-.01 5.04.02 7.52zm2.8-5.11c0 1.53-.05 3.06.02 4.57.05 1.15.54 2.09 1.85 2.59v-4.81q0-1.77-1.87-2.35zm-23.26 2.82c-.19.19-.34.47-.41.73-.83 3.07-1.65 6.15-2.52 9.4 1.53-1.5 2.84-2.95 4.32-4.2 1.57-1.33 2.39-2.97 2.82-4.94.49-2.23 1.15-4.43 1.76-6.73-.22.08-.34.09-.4.16-1.86 1.85-3.73 3.71-5.57 5.58zm20.88-8.23c.05.29 0 .64.16.86 2.44 3.58 7.74 5.62 12.05 4.64.15-.03.25-.24.38-.37-.15-.1-.3-.28-.46-.29-.67-.03-1.35-.03-2.02-.02-4.09.09-7.36-1.48-9.72-4.86-.13 0-.26.01-.39.02zm5.96 12.69c.94-.58 1.74-1.07 2.57-1.58-.85-1.03-1.69-2.04-2.57-3.1v4.68zm80.06 148.37s.06-.02.17-.07c-.26-.47-.55-.85-.7-1.27-.67-1.87-1.91-2.74-3.93-2.32-.06.01-.11.06-.17.09 1.47 3.61 1.6 3.71 4.62 3.58zM116.34 29.72c0 .28-.09.61.02.83.21.4.52.76.82 1.11 2.69 3.08 6.24 3.26 10.01 2.81-.15-.25-.36-.51-.59-.53-.63-.07-1.28-.08-1.91-.04-3.52.22-6.17-1.23-8.04-4.19-.11 0-.21.02-.32.03zm52.04 2.41q-.7-1.23-1.99-.69c1.28 1.33 2.55 2.65 3.96 4.11-.72-1.24-1.35-2.33-1.97-3.41zm18.31 28.72c-.45-1.31-.86-2.48-1.31-3.79-.43 1.81-.09 2.81 1.31 3.79zM76.25 189.34c-.49 1.04-.91 2.11-1.37 3.21q3.02.2 4.06-2.5c.13-.33.25-.65.44-1.12-.9 0-1.65-.03-2.39.02-.26.02-.65.19-.75.4zm-8.68 3.24c.25-.02.6-.21.71-.42.53-1.03.99-2.09 1.49-3.18-3.41-.05-2.67-.62-4.04 2.23-.2.41-.4.81-.69 1.38.97 0 1.75.03 2.52-.02zm4.53-3.64c-.23.01-.54.21-.64.41-.52 1.04-.98 2.1-1.51 3.25.95 0 1.76.03 2.57-.02.23-.01.56-.18.65-.37.49-1.04.92-2.11 1.43-3.29-.94 0-1.72-.03-2.49.02zm95.58-146.2c.96.76 1.69 1.8 2.53 2.7l.24-.22c-.55-2.01-1.21-3.99-1.61-6.03-.48-2.44-1.5-4.45-3.4-6.14-1.03-.92-1.83-1.24-3.04-.51.13.52.32 1.06.4 1.61.5 3.51 2.07 6.37 4.88 8.59zm-47.24-15.47c.88 1.85 3 2.68 5.39 2.06.01-.2.04-.41.04-.62q.02-1.65-1.66-1.69c-1.57-.04-2.27-.84-2.47-2.83-.32.41-.59.9-.99 1.21-.71.56-.66 1.13-.32 1.85zm-1.36-7.97c.88.24 1.63.61 2.23-.16.11-.14-.12-.79-.36-.92-1-.56-1.31.31-1.88 1.08zm-.33 8.29c-.84.46-.97 1.04-.39 1.59.97.91 1.89 2.1 3.06 2.49 1.76.59 3.72.59 5.7.85v-1.23c-1.68-.14-3.32-.14-4.9-.45-1.72-.34-2.75-1.65-3.48-3.24zM81.59 188.95c-.19 0-.47.18-.54.35-.45 1.06-.84 2.14-1.28 3.28h3.14c.41-1.2.8-2.36 1.24-3.65-.95 0-1.76-.02-2.56.02zm77.2-145.9c.07.27.18.56.37.75 2 2 4.01 3.98 6.14 6.09-.71-2.63-1.44-5.1-2.01-7.6-.36-1.58-1.07-2.84-2.26-3.96-1.51-1.42-2.89-2.98-4.51-4.68-.06.49-.1.59-.07.68.77 2.91 1.55 5.81 2.34 8.72zM120.9 5.47c2.33-.27 4.51.18 6.56 1.31.27.15.76.21 1.01.07 2.07-1.2 4.29-1.62 6.66-1.43.29.02.7.02.89-.15 1.28-1.22 2.51-2.49 3.77-3.75-2.84-1.46-20.75-1.45-23.59.05 1.3 1.27 2.55 2.52 3.84 3.72.19.18.59.21.87.18zm1.55 10.96c-1.17-.99-3.37-.78-4.37.36-.71.81-1.41 1.62-2.12 2.43.38.41.79.9 1.24 1.35 1.28 1.25 2.8 1.62 4.5 1.08.3-.1.5-.51.75-.78-2.26.96-4.29.39-5.53-1.68.39-.46.8-.89 1.16-1.38 1.29-1.77 2.82-1.93 4.72-.51-.11-.29-.13-.69-.34-.86zm38.27 16.44c-.81.23-1.46.41-2.2.62 1.1 1.09 2.12 2.09 3.26 3.21-.37-1.35-.71-2.57-1.06-3.83zm22.91 208.07c-.26.02-.65.19-.75.39-.5 1.05-.93 2.13-1.43 3.32.74 0 1.34-.04 1.93.01.73.06 1.18-.13 1.44-.89.33-.93.81-1.8 1.3-2.86-.94 0-1.72-.03-2.49.02zm2.36-11.76c-.63.19-.9.49-.63 1.23.65 1.79.81 3.65.71 5.55-.05.96 0 1.92 0 2.88 0 .13.06.27.09.4h.94c0-3.48.38-6.87-1.12-10.05zm-7.34 11.77c-.27.02-.64.29-.75.53-.44.99-.8 2.02-1.24 3.17.92 0 1.66.05 2.4-.02.28-.03.66-.26.78-.5.48-1 .88-2.05 1.36-3.2-.94 0-1.75-.05-2.55.03zm-94.47 3.7c-.4-1.17-.74-2.24-1.15-3.29-.07-.19-.39-.4-.61-.41-.84-.05-1.69-.02-2.67-.02.45 1.17.83 2.23 1.28 3.25.1.22.45.43.7.45.77.06 1.55.02 2.44.02zm89.48-3.75c-.22.01-.54.22-.62.42-.4 1.05-.75 2.12-1.16 3.32.94 0 1.74.03 2.54-.02.21-.01.51-.23.59-.43.44-1.03.83-2.09 1.31-3.32-.99 0-1.83-.03-2.67.02zm14.69.04c-.2 0-.47.18-.56.35-.52 1.07-1 2.16-1.55 3.36.92 0 1.69.03 2.46-.02.23-.01.53-.21.64-.42.57-1.04 1.08-2.11 1.68-3.29-1 0-1.84-.02-2.67.02zM95.31 32.89c-.35 1.28-.67 2.48-.93 3.41.91-.86 1.96-1.86 3.03-2.87l-2.11-.54zm97.87 208.06c-.17 0-.4.17-.48.32-.55 1.06-1.07 2.14-1.69 3.38.92 0 1.63.05 2.33-.02.29-.03.67-.24.81-.49.59-1 1.11-2.04 1.74-3.21-.98 0-1.85-.02-2.72.02zm7.83-12.5c-2.87-7.41-2.9-14.91-.38-22.4.95-2.83 2.42-5.38 5.36-6.83-1.95-2.24-2.96-2.27-5-.22-.15.15-.32.3-.42.48-.95 1.65-2.11 3.23-2.77 4.99-2.41 6.37-2.59 12.97-1.42 19.61.62 3.48 1.64 6.87 3.96 9.64.77.92 1.88 1.57 2.91 2.23.29.18.92.1 1.24-.1.58-.38 1.04-.94 1.62-1.48-2.67-1.28-4.13-3.43-5.1-5.92zm5.17-5.04c-.66-.5-1.2-1.34-1.5-2.13-1.11-2.89-1.18-5.86-.09-8.75.38-1.01 1.28-1.81 1.92-2.73.2-.29.41-.64.42-.97.04-1.49.02-2.98.02-4.48v-3.68c-.38.18-.61.27-.82.39-1.84 1.04-2.83 2.77-3.58 4.63-2.28 5.63-2.51 11.46-1.43 17.38.52 2.85 1.38 5.6 3.27 7.88.63.76 1.49 1.32 2.24 1.97l.32-.26c0-2.49-.01-4.97 0-7.46 0-.73-.09-1.26-.78-1.78zm2.88-10.69c-.25-.25-.53-.47-.75-.75-.25-.3-.44-.63-.62-.88-2.92 1.64-2.68 10.19-.12 11.2.48-.51.99-1.04 1.47-1.55-1.61-2.69-1.55-5.34.02-8.02zm-10.8 28.23c-.22 0-.53.12-.63.29-.62 1.09-1.19 2.2-1.83 3.41.89 0 1.6.04 2.31-.02.27-.02.63-.18.76-.4.65-1.04 1.25-2.12 1.93-3.3-.93 0-1.73-.02-2.54.01zm-120.81-.03c-.84-.06-1.68-.02-2.64-.02.49 1.17.9 2.18 1.36 3.17.11.24.41.54.65.56.82.07 1.65.03 2.57.03-.46-1.19-.83-2.22-1.27-3.22-.1-.23-.43-.49-.67-.51zm123.45 3.21c1.43-.56 2.31-1.58 2.72-3.38-1.81.63-1.79 2.4-2.72 3.38zm-4.38-13.65c-3.33-8.81-3.37-17.72-.33-26.58 1.27-3.71 3.22-7.08 7.45-8.25v-1.45c-.92.37-1.7.61-2.4.99-2.56 1.43-4.22 3.7-5.38 6.29-4.03 8.95-4.19 18.13-1.3 27.42.97 3.12 2.49 5.97 4.94 8.21 1.16 1.06 2.46 1.86 4.14 2.05v-1c-1.23-.74-2.4-1.29-3.37-2.07-1.81-1.46-2.94-3.47-3.75-5.61zM88.23 250h47.25c10.84 0 21.69.01 32.53 0 2.67 0 4.54-1.42 6.12-3.64H81.91c1.67 2.31 3.6 3.65 6.34 3.65zm-15.6-9.06c-.87-.04-1.73-.02-2.7-.02.28.62.49 1.09.71 1.56q1.09 2.33 3.93 2.11c-.49-1.16-.93-2.22-1.41-3.27-.08-.18-.35-.37-.54-.38zm-24.15-29.71c-.47.49-.96 1-1.48 1.53 1.56 2.7 1.58 5.33.1 7.81.51.59 1.01 1.17 1.49 1.73 2.71-1.67 2.4-10.13-.12-11.07zm2.77 20.16c1.02-1.52 2.07-3.08 2.69-4.78 1.78-4.88 1.93-9.94 1.17-15.04-.48-3.23-1.38-6.33-3.4-8.96-.61-.8-1.55-1.34-2.34-2l-.28.22c0 2.51.02 5.01-.01 7.52 0 .74.08 1.3.8 1.78.55.37.98 1.04 1.27 1.66 1.12 2.43 1.31 4.99.77 7.6-.36 1.77-.9 3.45-2.58 4.48-.14.09-.24.35-.25.54-.02 2.76-.01 5.52-.01 8.67.89-.66 1.73-1.03 2.16-1.67zM70.69 56.92c-.47 1.43-.87 2.61-1.26 3.79 1.26-.91 1.71-2.07 1.26-3.79zm-17.62-4.39c.53-.56 1-1.23 1.63-1.65.74-.49 1.6-.85 2.46-1.09.26-.07.68.43 1.03.67-.28.3-.53.66-.86.87-.4.26-.97.31-1.31.61-.91.8-1.74 1.67-2.58 2.54-.59.61-.69 1.33-.31 2.47.9-.99 1.61-1.88 2.44-2.63.27-.24.97-.36 1.24-.18.57.37.34.91-.1 1.34-.84.82-1.66 1.65-2.53 2.52.2.18.36.34.64.59.51-.56.93-1.17 1.49-1.58.31-.23.85-.13 1.29-.18-.05.44.05.98-.17 1.29-.41.59-1.01 1.05-1.52 1.55.58.87.81.09 1.19-.06.36-.14.81-.08 1.21-.1-.02.42.04.85-.07 1.24-.08.26-.4.45-.61.68 1.25 1.01 1.86.96 2.79-.24.34-.45.63-.94.92-1.43 1.59-2.73 3.16-5.47 4.76-8.2.51-.88.94-.95 1.66-.26 1.05 1.01 2.06 2.06 3.1 3.08 2.32 2.3 2.34 5.21.04 7.52-1.68 1.68-3.39 3.35-5.06 5.05-1.02 1.04-1 2.23-.02 3.19.95.94 2.05.93 3.11-.04.34-.31.66-.65.98-.98 2.11-2.08 4.31-4.03 7.39-4.66v-1.1-28.05c0-.65.07-1.3.9-1.27.78.02.78.66.78 1.26v7.68c0 .21.04.42.09.8 2.67-4.63 5.24-9.08 7.84-13.59-1.68-1.68-3.25-3.33-4.9-4.89-1.74-1.66-4.19-1.97-6.33-.97-3.55 1.66-5.32 6.35-2.11 9.77.24.25.42.84.29 1.09-.37.7-.93.61-1.46.06-1.2-1.26-1.94-2.75-2.22-4.57-2.55 1.48-4.99 2.85-7.38 4.3-1.2.73-1.44 2.01-.77 3.25.36.65.78 1.28 1.09 1.95.15.32.25.79.13 1.08-1.09 2.5-.63 4.71 1.16 6.69.39.43.58.94.06 1.25-.3.18-1.03.09-1.26-.16-2-2.12-2.7-4.59-1.87-7.46.14-.47 0-1.01 0-1.52l-.39-.06c-2.75 2.77-5.5 5.54-8.25 8.32-1.47 1.49-1.35 2.89.41 4.22zm32.46-6.99c2.17-2.17 4.12-4.13 6.06-6.09.16-.17.3-.4.37-.62.59-2.11 1.16-4.22 1.73-6.33-1.82-.6-1.76-.53-3.07.61-1.71 1.49-2.86 3.21-3.29 5.49-.42 2.25-1.14 4.44-1.8 6.94zm4.23-14.05q-1.38-.61-2.08.6c-.63 1.1-1.26 2.19-1.92 3.34 1.35-1.34 2.68-2.64 4-3.94zM52.59 192.56c1.67-.39 1.62-2.18 2.56-3.16-1.48.54-2.29 1.63-2.56 3.16zm5.14 48.39c-.77-.04-1.54-.02-2.48-.02.65 1.15 1.19 2.14 1.78 3.1.16.26.48.56.75.59.76.08 1.53.03 2.46.03-.65-1.22-1.21-2.31-1.82-3.37-.11-.19-.45-.32-.7-.34zm5.06 0c-.84-.04-1.67-.02-2.64-.02.64 1.2 1.19 2.26 1.78 3.3.12.2.42.39.65.4.77.05 1.54.02 2.45.02-.6-1.22-1.12-2.29-1.68-3.35-.09-.18-.37-.35-.57-.36zm4.91-.01c-.84-.04-1.68-.02-2.67-.02.61 1.21 1.13 2.27 1.7 3.31.11.2.41.39.64.4.76.05 1.53.02 2.45.02-.55-1.21-1.03-2.3-1.55-3.37-.08-.17-.37-.34-.57-.35zm-12.86-6.21c.32-.28.66-.57.86-.93.93-1.66 2.04-3.27 2.68-5.04 2.28-6.33 2.46-12.86 1.27-19.42-.65-3.55-1.78-6.94-4.12-9.81-.83-1.02-1.82-1.78-3.12-2.07-.21-.05-.53-.06-.67.06-.59.53-1.13 1.11-1.72 1.71 2.38 1.2 3.85 3.06 4.76 5.3 3.31 8.17 3.31 16.39-.02 24.56-.91 2.24-2.36 4.13-4.71 5.24 1.95 2.29 2.62 2.34 4.79.42zm78.91-165.67c-1.54-1.59-3.11-3.16-4.87-4.96 0 2.55-.02 4.78.02 7.01 0 .3.28.63.51.87 1.62 1.64 3.26 3.27 5.06 5.06-.18-2.61-.34-5.01-.51-7.41-.01-.2-.08-.44-.21-.57zM52.64 240.99c.21 1.61 1.12 2.59 2.49 3.17-.89-1.02-.93-2.74-2.49-3.17zM61 230.23c2.18-5.6 2.74-11.42 2.19-17.37-.48-5.2-1.77-10.14-4.85-14.46-1.45-2.03-3.27-3.6-5.92-4.06v1.32c.06-.07.11-.14.17-.22 1.2.78 2.51 1.44 3.57 2.38 1.71 1.51 2.77 3.52 3.53 5.64 3.13 8.7 3.17 17.48.15 26.19-1.29 3.72-3.25 7.07-7.48 8.27.02.42.04.8.06 1.24 1.66-.2 2.94-1 4.08-2.03 2.11-1.9 3.48-4.3 4.49-6.9zm57.09-130.39c.17-.17.37-.4.38-.61.15-2.41.26-4.83.38-7.25-.09-.04-.17-.08-.26-.11-2.3 2.35-4.61 4.69-6.9 7.06-.22.23-.39.61-.4.92-.03 2.19-.02 4.39-.02 6.79 2.36-2.36 4.59-4.58 6.81-6.81zm-15.67 5.57c.14.02.28.05.41.07 2.15-2.16 4.3-4.32 6.44-6.49.18-.19.37-.46.39-.7.18-2.42.32-4.84.48-7.48-2.57 2.59-5.02 5.04-7.44 7.51-.17.17-.27.5-.27.75-.02 2.11-.01 4.23-.01 6.35zm1-17.45c-.18.18-.29.5-.31.76-.23 2.41-.44 4.82-.68 7.43.27-.22.38-.3.47-.39 2.46-2.46 4.91-4.92 7.36-7.38.14-.14.24-.36.26-.55.37-2.59.71-5.19 1.11-8.11-2.88 2.88-5.56 5.55-8.22 8.24zm16.48-16.59c-1.58 1.58-3.18 3.14-4.74 4.74-.61.62-1.47 1.27-1.62 2.02-.49 2.59-.72 5.23-1.05 7.85l.29.26c2.28-2.37 4.56-4.74 6.82-7.13.21-.22.28-.64.3-.97.1-1.49.15-2.98.24-4.46.05-.82.17-1.64.29-2.69-.33.24-.45.3-.54.39zm7.28 21.79c-2.33 2.32-4.49 4.46-6.63 6.63-.22.22-.39.6-.4.92-.03 2.23-.02 4.46-.02 6.65 2.17-2.13 4.35-4.27 6.51-6.41.22-.21.5-.5.51-.76.04-2.28.02-4.56.02-7.02zm-7.08 17.06c.06 2.15.14 4.3.23 6.75 2.36-2.38 4.51-4.54 6.64-6.7.11-.11.2-.31.2-.46.01-2.26 0-4.51 0-7.09-2.44 2.46-4.66 4.69-6.86 6.93-.13.14-.23.38-.22.57zm-16.07 12.19c-.43-1.66-.83-3.19-1.24-4.75-1.18 1.2-2.27 2.3-3.45 3.49 1.52.41 3.03.82 4.69 1.27zm9.35 1.53c1.84-1.86 3.5-3.54 5.16-5.23.13-.14.27-.36.26-.54-.12-2.14-.27-4.28-.42-6.62-2.01 2.02-3.9 3.92-5.78 5.83-.15.15-.25.45-.22.65.3 1.9.64 3.79 1 5.91zm5.61-2.96c-1.43 1.39-2.87 2.8-4.37 4.26 1.57.42 3.16.84 4.88 1.3-.18-1.98-.35-3.83-.51-5.56zm-6.67-32.28c-.16.16-.25.43-.28.66-.16 1.59-.31 3.18-.45 4.78-.07.84-.11 1.69-.18 2.71 2.53-2.53 4.9-4.88 7.26-7.25.18-.19.37-.46.39-.7.19-2.42.35-4.85.54-7.5-2.54 2.54-4.92 4.92-7.28 7.31zm-5.9-25.71c.6-2.86 1.17-5.71 1.81-8.86-2.71 2.72-5.21 5.23-7.7 7.74-.14.15-.27.34-.32.54-.86 3.13-1.7 6.27-2.63 9.71 2.98-2.99 5.73-5.75 8.47-8.51.17-.17.32-.4.37-.63zm9.94 48.31c1.66-1.37 2.33-2.94 2.09-5.06-.16-1.37-.03-2.77-.03-4.36-2.28 2.29-4.39 4.39-6.48 6.51-.25.25-.52.65-.5.96.13 2.01.34 4.02.55 6.33 1.61-1.64 2.88-3.15 4.38-4.38zm-10.71 10.83c1.27-1.34 2.28-2.54 3.44-3.56 1.06-.94 1.6-1.87 1.26-3.37-.34-1.48-.38-3.02-.57-4.7-1.84 1.85-3.54 3.55-5.22 5.27-.16.17-.3.5-.25.71.4 1.78.84 3.55 1.35 5.65zm4.01-14.21c.01-2.22 0-4.43 0-6.98-2.36 2.38-4.48 4.5-6.58 6.65-.15.15-.23.45-.21.66.26 1.91.54 3.82.86 6.01 2.04-2.05 3.88-3.91 5.71-5.78.13-.13.21-.38.21-.57zm1.2 11.36c-1.3 1.31-2.58 2.59-3.89 3.9 1.57.42 3.15.85 4.84 1.31-.34-1.85-.64-3.53-.95-5.21zm-1.62 73.27h3.19c.15-1.19.29-2.34.45-3.56h-3.11c-.18 1.22-.35 2.36-.53 3.56zm10.47-6.09v-20.48c0-.92.03-1.86-.14-2.76-1.21-6.23-2.46-12.46-3.72-18.68-.13-.66-.16-1.29.62-1.43.75-.14.91.52 1.03 1.09.32 1.6.63 3.2.95 4.8l1.14 5.68c.13-.34.13-.66.13-.98.02-8.14.03-16.28.06-24.42 0-.69-.14-1.02-.93-1.21-3.82-.96-7.61-2.02-11.41-3.04-2.87-.77-5.75-1.54-8.8-2.35 1.48 8.44 2.92 16.65 4.34 24.86.44 2.52 1.09 5.03 1.21 7.56.2 4.36.14 8.75.04 13.12-.09 3.53-1.53 6.38-4.81 8.08-.47.24-.91.57-1.39.79-.63.28-.85.69-.83 1.41.05 2.6.02 5.19.02 7.79 0 .31.04.61.06.89h3.38v-6.37c0-.66-.16-1.54.83-1.52.98.03.78.92.79 1.57 0 1.07 0 2.13-.01 3.2v3.15h3.46v-3.22c0-2.2-.03-4.41.04-6.61.01-.35.51-.69.78-1.03.27.34.68.64.78 1.03.14.5.03 1.06.03 1.59v8.24h5.34c.02-.37.05-.68.05-.99.01-4.23.03-8.46.02-12.69 0-.63.03-1.22.81-1.21.75.01.83.59.83 1.22-.01 2.84 0 5.69 0 8.54v5.12h5.27c.01-.29.03-.5.03-.71zm-3.64 6.1c.5-.14 1.19-.5 1.31-.9.25-.84.18-1.78.25-2.71h-3.05c-.15 1.23-.29 2.39-.44 3.65.75 0 1.38.12 1.93-.04zM95.46 80.12c-.33 1.48-.61 2.97-.97 4.69 3.16-3.15 6.13-6.1 9.08-9.06.16-.16.31-.4.35-.62.6-2.84 1.18-5.68 1.83-8.8-2.58 2.57-4.91 4.98-7.36 7.28-1.18 1.11-2 2.33-2.28 3.93-.15.87-.47 1.71-.66 2.57zm11.2-5.11c-.85.82-1.39 1.7-1.6 2.88-.42 2.43-.95 4.83-1.44 7.25l.35.26c2.6-2.7 5.21-5.38 7.78-8.1.28-.3.39-.81.46-1.24.16-1.01.24-2.04.39-3.06.2-1.45.43-2.9.68-4.61-.35.32-.49.45-.63.59-1.99 2.02-3.95 4.08-5.99 6.05zm22.12-16.17c.13 1.14-.1 2.43.44 3.14 1.27 1.67 2.9 3.07 4.57 4.75-.2-2.81-.38-5.33-.56-7.89h-4.44zm.84 131.16c.77 0 1.54.09 2.42.15-.02-.42-.04-.78-.06-1.17h-3.02c-.16.65-.07 1.02.66 1.02zm-2.41-59.69c-.94-.19-1.84-.52-2.77-.76-1-.26-2.01-.5-3-.74v58.41h13.17V128.8c-1.99.53-3.86 1.06-5.75 1.51-.52.13-1.12.11-1.65 0zm-3.15 59.85c.84-.06 1.58-.15 2.31-.15.8 0 .99-.33.7-1.03h-2.96c-.02.42-.04.78-.05 1.18zm-38.24-.76c-.41 1.01-.74 2.05-1.13 3.2.95 0 1.79.03 2.63-.02.23-.02.57-.26.65-.48.37-1.01.66-2.05 1.01-3.18-.91 0-1.69-.04-2.46.02-.25.02-.6.24-.69.46zm12.7-.45h-3.05c-.34 1.25-.64 2.39-.97 3.6h3.19c.27-1.2.54-2.36.82-3.6zm5.81 3.6h3.21c.18-1.19.36-2.36.54-3.59h-3.06c-.23 1.19-.46 2.36-.69 3.59zm-14.31-1.34c-.12.4-.24.81-.41 1.35h3.17c.31-1.17.63-2.35.95-3.53q-2.93-.42-3.7 2.18zm10.75-2.27c-.2 0-.52.18-.57.33-.29 1.07-.52 2.16-.78 3.28h3.19c.23-1.16.46-2.3.72-3.63-.94 0-1.75-.02-2.56.02zm-5.26-8.74c-.3-2.69.57-4.32 3.1-5.41 2.93-1.27 3.94-3.93 4-6.96.05-2.91.01-5.83 0-8.74 0-.25-.03-.5-.07-.98-5.67 9.81-11.2 19.41-16.8 29.1h9.81c0-2.41.2-4.73-.05-7.01zm-16.47-60.6c.95-.95 1.91-1.88 2.83-2.85.14-.14.23-.44.19-.64-.38-1.8-.8-3.59-1.26-5.62-1.24 1.27-2.36 2.4-3.46 3.55-.14.15-.27.44-.23.63.34 1.73.65 3.48 1.93 4.93zm8.28 6.9l3.82-2.19-1.33-3.61c-.77.83-1.4 1.54-2.07 2.21-1.5 1.51-1.5 1.5-.59 3.47.01.03.05.04.17.12zm-1.55.9c-.25-.58-.48-1.12-.63-1.46-.63.46-1.22.9-1.81 1.33.29.45.49.77.71 1.12.6-.35 1.14-.66 1.72-1zm3.38-8.77c-.45-1.7-.94-3.4-1.5-5.41-1.2 1.25-2.26 2.33-3.29 3.45-.17.19-.28.59-.21.83.46 1.65.98 3.29 1.57 5.22 1.2-1.25 2.25-2.34 3.28-3.45.14-.15.21-.46.15-.65zm-5.13 5.64c.16-.21.28-.59.21-.83-.49-1.64-1.03-3.26-1.57-4.92l-2.73 2.82c.83 1.43 1.69 2.91 2.65 4.55.56-.62 1.04-1.09 1.44-1.62zm-1.37-15.52c-.18.19-.29.58-.24.84.32 1.8.69 3.59 1.09 5.61 1.29-1.3 2.43-2.44 3.56-3.61.13-.13.22-.38.19-.56-.32-1.93-.66-3.86-1.03-5.98-1.26 1.29-2.44 2.47-3.57 3.69zm-1.24-7.88c.15 1.98.34 3.96.54 6.14 1.38-1.36 2.6-2.55 3.79-3.76.15-.16.28-.43.27-.65a479.4 479.4 0 00-.31-6.63c-1.42 1.44-2.72 2.73-3.99 4.06-.19.2-.32.56-.3.83zm.06-2.88c1.39-1.42 2.71-2.75 4-4.11.18-.18.31-.48.33-.74.21-2.44.39-4.88.59-7.37-1.55 1.53-3.07 3.01-4.58 4.51-.14.14-.33.35-.33.52-.02 2.35-.01 4.69-.01 7.19zm-2.5-38.97c.06.45 0 .92 0 1.38v2.63h.18c1.04-3.88 2.07-7.76 3.08-11.55-3.15 1.61-3.66 4.38-3.27 7.52zm-1.45 16.57c-.56 2.74-1.1 5.48-1.65 8.22.09.04.17.08.26.12.87-.87 1.67-1.84 2.63-2.6 2.07-1.65 3.18-3.75 3.61-6.36.33-2 1.01-3.94 1.6-6.17-2.15 2.15-4.11 4.1-6.05 6.06-.19.19-.35.46-.41.73zm7.13-9.84c.12-.12.22-.28.27-.44.86-3.16 1.7-6.33 2.61-9.72-2.14 2.14-4.12 4.11-6.09 6.1-.16.17-.29.4-.35.63-.86 3.13-1.71 6.26-2.62 9.64 2.18-2.19 4.19-4.19 6.18-6.2zM75.17 92.3c-.04.7 0 1.41 0 2.19 1.46-1.45 2.84-2.78 4.17-4.15.26-.27.45-.7.51-1.08.34-2.48.63-4.98.96-7.7-1.57 1.59-3.07 3.04-4.48 4.57-.41.45-.69 1.12-.78 1.72-.21 1.47-.28 2.96-.37 4.45zm18.97-4.54c-.22 2.48-.41 4.97-.61 7.45 2.71-2.42 5.17-4.87 7.61-7.34.26-.26.51-.62.58-.97.51-2.74.98-5.49 1.46-8.25-.09.05-.2.08-.27.15-2.81 2.81-5.62 5.63-8.43 8.45-.14.14-.32.33-.34.51zM85.2 48.28c-.24.24-.5.54-.59.86-.86 3.1-1.68 6.21-2.55 9.47.98-.95 1.76-1.84 2.67-2.55 2.85-2.22 4.44-5.1 5.02-8.65.26-1.6.8-3.15 1.28-4.97-2.09 2.08-3.97 3.95-5.84 5.84zm4.61 5.34c-.85 3.1-1.69 6.21-2.57 9.48 2.16-2.13 4.19-4.14 6.21-6.16.1-.1.17-.23.21-.37.85-3.16 1.7-6.32 2.58-9.63-2.11 2.09-4.1 4.06-6.08 6.04-.16.16-.28.41-.35.63zm-9.72-8.3c-.36.69-.99 1.34-1.07 2.05-.17 1.49-.05 3-.05 4.51.09.05.19.1.28.14 1.24-1.3 2.5-2.59 3.73-3.9.18-.19.28-.49.35-.75.83-3.03 1.65-6.07 2.51-9.25-2.6 1.99-4.34 4.46-5.75 7.2zm9.77 24.86c.12-.12.2-.3.25-.46.86-3.13 1.7-6.27 2.62-9.64-2.18 2.17-4.19 4.16-6.19 6.16-.14.14-.24.35-.3.55-.84 3.1-1.67 6.2-2.58 9.59l6.2-6.2zm32.52 118.85h-3.05c-.05.82-.1 1.54-.15 2.36.75-.21 1.38-.45 2.04-.54 1.09-.15 1.43-.73 1.16-1.82zm4.77-66.67c-1.66 1.63-3.29 3.25-4.98 4.92 1.64.45 3.27.89 4.98 1.36v-6.28zm.05-37.92c0-.25-.06-.49-.1-.82-2.01 2-3.94 3.87-5.8 5.82-.37.39-.62 1.03-.67 1.57-.18 2.15-.25 4.31-.38 6.77 1.3-1.31 2.41-2.44 3.52-3.57 1.12-1.14 2.68-2.09 3.23-3.46.57-1.4.17-3.2.19-4.83 0-.5.01-.99 0-1.49zm0 29.29v-1.31c-2.2 2.21-4.18 4.19-6.15 6.19-.21.21-.47.52-.46.77.13 2.07.32 4.14.52 6.53 1.23-1.26 2.13-2.43 3.26-3.31 2.27-1.74 3.34-3.87 2.84-6.75-.12-.69-.02-1.42-.02-2.13zm-29.28 6.46c1.5-1.55 2.86-2.93 4.19-4.34.15-.16.16-.51.12-.76-.29-1.85-.6-3.71-.94-5.76-1.7 1.71-3.26 3.26-4.77 4.85-.2.2-.31.65-.24.92.48 1.62 1.02 3.22 1.63 5.09zm2.37-21.83c.26-.27.44-.72.47-1.11.19-2.33.32-4.66.47-7.03-2.42 2.4-4.79 4.74-7.15 7.1-.19.19-.41.47-.4.69.1 2.12.24 4.25.38 6.62 2.24-2.25 4.26-4.24 6.23-6.28zm-4.6 14.31c1.76-1.77 3.36-3.37 4.94-5 .22-.23.44-.59.43-.88-.1-2.08-.25-4.16-.4-6.47-1.12 1.13-2.12 2.13-3.1 3.14-1.05 1.09-2.62 2.05-2.97 3.34-.37 1.34.43 3.01.74 4.54.08.4.22.8.36 1.32zm14.63-60.16c-.64 2.79-1.19 5.6-1.73 8.25 1.9-1.83 3.86-3.7 5.75-5.52-1.01-1.39-1.99-2.75-3.07-4.24-.35.53-.83.98-.95 1.51zm-8-17.26c-.2-.32-.54-.54-.93-.92-.14.38-.21.54-.25.7l-11.1 41.4c-3.42 12.76-3.5 25.55-.22 38.34.75 2.94 1.75 5.81 2.66 8.79 1.49-.87 2.76-1.61 3.97-2.32-.72-2.33-1.46-4.51-2.07-6.73-2.48-9.13-3.24-18.41-1.77-27.76.78-4.99 2.05-9.92 3.32-14.83 2.75-10.61 5.65-21.17 8.46-31.76.11-.43.11-1.01-.09-1.39-.6-1.21-1.3-2.36-2.01-3.51zm18.52 52.33c2.16-2.19 4.15-4.2 6.11-6.23.15-.15.22-.44.23-.66.02-2.19 0-4.38 0-6.9-1.95 1.97-3.7 3.71-5.41 5.5-.23.24-.35.68-.38 1.04-.2 2.32-.36 4.63-.56 7.25zM80.45 108.1c-.21-1.99-.45-3.98-.7-6.09-1.3 1.29-2.51 2.47-3.69 3.68-.19.2-.34.57-.31.83.24 1.89.53 3.78.84 5.98 1.36-1.38 2.48-2.51 3.58-3.67.17-.18.31-.5.29-.74zm-5.35-9.05c.21 1.55.22 3.12.34 4.93 1.43-1.44 2.67-2.66 3.86-3.93.23-.25.34-.69.35-1.05.03-2.13.02-4.26.02-6.61-1.12 1.13-2.03 2.17-3.08 3.06-1.14.97-1.69 2.05-1.48 3.59zm7.8-19.2c-.45 2.62-.87 5.23-1.3 7.85.12.06.23.11.35.17 1.33-1.36 2.64-2.75 4-4.08.65-.64 1.05-1.31 1.24-2.25.55-2.71 1.23-5.39 1.88-8.15-1.98 1.96-3.91 3.88-5.83 5.81-.16.16-.29.42-.33.64zm25.18-15.82c-.18.18-.25.5-.31.77-.58 2.76-1.14 5.53-1.76 8.57 2.54-2.54 4.87-4.87 7.19-7.21.21-.21.41-.52.45-.81.37-2.58.71-5.16 1.08-7.99-2.33 2.33-4.51 4.49-6.66 6.67z"/></svg>