<svg width="250" height="250" xmlns="http://www.w3.org/2000/svg"><path fill="#2f69c2" d="M188 227.95c-2.8-.3-4.9-.6-6.6-.8-5.2-.6-6.7-.8-12.8-2.3-2.4-.6-11.9-8.3-11.9-23.5 0-19.5 5.7-36.7 8.2-43.2.1-.2.2-.7.5-1.3.4-1.2 3.4-8.6 3.4-8.6 1.6-3.8 3.3-7.6 4.4-11.6l.1-.2c1.6-5.8 7-26.9 7.4-56 0-2.9-3-5.5-4.9-7-.3-.3-.6-.5-.8-.7-1.8-1.6-4-3.7-6.7-6-1.8-1.5-3.7-3.2-5.7-5.1-3.3-3-7-5.7-10.6-8.3-4.4-3.2-9-6.6-12.7-10.3-5.6-5.6-10.7-15.5-9.8-23.4.2-1.2-.2-2.2-1-2.9-.8-.8-2.2-1-3.4-.6-1.2-.4-2.5-.1-3.4.6-.8.7-1.1 1.7-1 2.9.9 7.9-4.2 17.8-9.8 23.4-3.7 3.8-8.3 7.1-12.7 10.3-3.5 2.6-7.3 5.3-10.6 8.3-2.1 1.9-4 3.6-5.7 5.1-2.6 2.3-4.9 4.4-6.7 6-.2.2-.5.5-.8.7-1.8 1.5-4.9 4.1-4.9 7 .4 29.2 5.8 50.3 7.4 56l.1.2c1.1 4 2.8 7.9 4.4 11.6 0 0 3 7.4 3.4 8.6.2.7.4 1.2.5 1.3 2.5 6.5 8.2 23.7 8.2 43.2 0 15.1-9.5 22.9-11.9 23.5-6.2 1.5-7.6 1.7-12.8 2.3-1.7.2-3.8.4-6.6.8-30.3 2.6-33.5 14.7-33.5 19.8 0 1.4.8 5.8 4.9 9.9 3.5 3.7 10.7 8.1 24.4 8.1 2.1 0 4.2-.1 6.5-.3 9.1-.8 18.3-2 27.1-3.1l9.6-1.2c4.3-.5 12-.9 23-1h2.1c11 .2 18.7.5 23 1l9.6 1.2c8.9 1.1 18.1 2.3 27.1 3.1 2.2.2 4.4.3 6.5.3 13.7 0 20.8-4.4 24.4-8.1 4-4.1 4.9-8.5 4.9-9.9-.3-5.1-3.6-17.2-33.8-19.8zm-47-99.2c-.5 0-.8-.1-1.3-.2-1.4-.5-3.2-2.6-3.4-3.5 7-3.9 11.7-11.4 11.7-20 0-12.7-1.6-23-23-23s-23 10.3-23 23c0 8.6 4.7 16.1 11.7 20-.2.8-2 2.9-3.4 3.5-.5.2-.8.2-1.3.2-4.5 0-10.1-8-11.7-11.1-2.5-5.5-5.6-14.7-6.3-28.3v-.5c-.2-2.8 5.1-10.1 5.9-11.4 1-1.7 13.5-17.2 17.2-20.8 1.3-1.3 8-8.5 11-11.6 2.9 3.2 9.6 10.3 11 11.6 3.7 3.7 16.3 19.1 17.2 20.8.7 1.2 6 8.5 5.9 11.4v.5c-.7 13.5-3.9 22.8-6.3 28.2-1.8 3.2-7.4 11.2-11.9 11.2z"/></svg>